<svg
  data-v-1e121de1=""
  version="1.0"
  xmlns="http://www.w3.org/2000/svg"
  xmlns:xlink="http://www.w3.org/1999/xlink"
  width="100%"
  height="100%"
  viewBox="120 60 100 120"
  preserveAspectRatio="xMidYMid meet"
  color-interpolation-filters="sRGB"
  class="el-tooltip"
  style="margin: auto; background-color: transparent;"
>
  <rect
    data-v-1e121de1=""
    x="0"
    y="0"
    width="100%"
    height="100%"
    fill="transparent"
    fill-opacity="1"
    class="background"
  ></rect>
  <rect
    data-v-1e121de1=""
    x="0"
    y="0"
    width="100%"
    height="100%"
    fill="url(#watermark)"
    fill-opacity="1"
    class="watermarklayer"
  ></rect>
  <g
    data-v-1e121de1=""
    fill="#d6ad60"
    class="pmspacesvg"
    transform="translate(92.15515899658203,79.71898651123047)"
  >
    <g>
      <g transform="translate(0,0)">
        <g><rect></rect></g>
        <g
          fill-rule="evenodd"
          fill="#122620"
          stroke="#122620"
          stroke-linejoin="round"
          stroke-width="16"
          mask="url(#2bda311c-b594-4777-909c-42c9aeb93301)"
        >
          <rect
            stroke="none"
            fill="none"
            width="155.66734313964844"
            height="73.61203002929688"
            y="-3"
          ></rect>
          <g>
            <path
              d="M 18.8 26.5 A 8.2 8.2 0 0 0 19.4 27.7 A 6.6 6.6 0 0 0 21 29.4 Q 21.9 30.2 22.3 31.4 A 7.6 7.6 0 0 0 22.9 32.7 A 2.4 2.4 0 0 0 23 32.9 A 3.8 3.8 0 0 1 23.2 33.1 A 4.9 4.9 0 0 1 23.7 34.2 A 7 7 0 0 0 24.4 35.7 A 3.5 3.5 0 0 0 24.8 36.2 A 7.5 7.5 0 0 1 25.3 37 A 10.5 10.5 0 0 1 25.8 37.9 A 14.9 14.9 0 0 0 26.2 38.6 A 17.3 17.3 0 0 0 27.1 39.8 A 3 3 0 0 1 27.5 40.3 A 4.7 4.7 0 0 1 28 41.6 A 3.5 3.5 0 0 0 28.4 42.3 A 5 5 0 0 0 29.9 43.8 Q 31.3 44.7 32.9 44.2 A 2.1 2.1 0 0 0 33.4 44 A 2.4 2.4 0 0 0 34.2 43 A 1.1 1.1 0 0 1 34.7 42.4 A 2.3 2.3 0 0 1 35.3 42.1 A 3.5 3.5 0 0 0 36 41.8 A 2.8 2.8 0 0 0 36.8 41.1 A 3.1 3.1 0 0 1 37.6 40.3 A 3.5 3.5 0 0 1 38.2 40 A 2.9 2.9 0 0 0 38.7 39.8 A 3.8 3.8 0 0 0 40 38.2 A 5.5 5.5 0 0 1 41.9 36.4 A 19.3 19.3 0 0 1 43.6 35.5 Q 46.9 33.9 48.5 34.7 A 3.3 3.3 0 0 1 50.2 35.9 A 2.2 2.2 0 0 1 50.3 36.1 A 2.8 2.8 0 0 0 50.4 36.3 A 7.7 7.7 0 0 0 51.4 37.5 A 7.8 7.8 0 0 1 52.9 39.2 A 3.9 3.9 0 0 1 53.5 40.9 A 12.3 12.3 0 0 1 53.4 43.9 A 3.2 3.2 0 0 0 53 45.3 A 2.4 2.4 0 0 1 52.4 46.8 Q 52.3 47.1 52 47.2 A 1.9 1.9 0 0 0 51.7 47.4 A 1.5 1.5 0 0 0 51.5 47.5 A 0.4 0.4 0 0 1 51.4 47.7 A 4.4 4.4 0 0 1 49.7 48 Q 48.5 47.8 47.5 48 A 1.3 1.3 0 0 0 47.4 48.1 A 2.4 2.4 0 0 0 46.5 49.5 A 1.1 1.1 0 0 0 46.7 50.4 A 2.8 2.8 0 0 0 47.4 51.2 A 4.2 4.2 0 0 0 49.4 52.2 A 2.5 2.5 0 0 1 50.8 52.7 A 4.4 4.4 0 0 0 53.1 51.9 A 8.7 8.7 0 0 0 53.4 51.7 A 2.8 2.8 0 0 0 54.5 50.7 A 1.5 1.5 0 0 1 55.1 50.1 A 2.4 2.4 0 0 0 55.9 48.9 A 11.6 11.6 0 0 0 57.8 45.9 A 5.3 5.3 0 0 0 57.6 43.1 A 3.8 3.8 0 0 1 57.6 41.3 A 6 6 0 0 0 57 38.3 Q 56.4 36.7 55.5 35.9 A 5 5 0 0 1 54.5 34.7 A 2.2 2.2 0 0 1 54.3 34.4 A 13.7 13.7 0 0 0 53.7 33.3 A 2.6 2.6 0 0 0 52.4 32.1 A 5.2 5.2 0 0 1 51.1 31.2 A 182.4 182.4 0 0 0 48.7 30.5 A 7.3 7.3 0 0 0 44.3 30.9 A 7.4 7.4 0 0 0 42.3 31.7 A 3.1 3.1 0 0 0 41.7 32.2 A 11.2 11.2 0 0 1 39.4 34.1 A 10.4 10.4 0 0 1 38.6 34.6 A 6.8 6.8 0 0 0 38 34.9 A 9.4 9.4 0 0 0 35.9 36.8 A 9.5 9.5 0 0 1 33.8 38.3 Q 32.7 39.1 32.1 39.1 A 1.5 1.5 0 0 1 31.3 38.4 A 3.4 3.4 0 0 1 31.2 38.2 A 42.4 42.4 0 0 0 30.6 37.2 A 8.3 8.3 0 0 0 29.8 36.1 A 4.5 4.5 0 0 1 29.5 35.6 A 5.2 5.2 0 0 0 29 34.4 A 0.7 0.7 0 0 0 28.9 34.3 Q 28.5 33.9 28.4 33.5 A 4.8 4.8 0 0 0 28 32.7 A 11.1 11.1 0 0 0 27.1 31.5 A 2.3 2.3 0 0 1 26.7 31.1 A 4.6 4.6 0 0 1 26.2 29.9 A 6.8 6.8 0 0 0 25.7 28.9 A 2 2 0 0 0 25.6 28.6 A 2.4 2.4 0 0 1 25.2 28.2 A 3.5 3.5 0 0 1 24.8 27.4 A 5.1 5.1 0 0 0 24.6 26.9 A 25.7 25.7 0 0 0 23.7 25.6 A 4.6 4.6 0 0 0 21 23.6 A 2 2 0 0 0 19.6 23.9 A 2.7 2.7 0 0 0 19.1 24.3 Q 18.3 25.1 18.8 26.5 Z M 138.7 49.6 L 137.2 48.2 A 11.8 11.8 0 0 0 136.4 47.6 L 135.6 47.2 A 16.6 16.6 0 0 0 134.4 46.5 Q 133.7 46.1 133.2 45.9 Q 132.7 45.5 132.5 45.5 A 2.4 2.4 0 0 1 132 45.7 A 2.1 2.1 0 0 0 131.4 46 A 20.3 20.3 0 0 1 130.6 47.4 A 42.1 42.1 0 0 1 129.5 49.1 L 128.4 50.6 A 35.1 35.1 0 0 0 127.4 52.1 L 124.8 57.2 A 6.9 6.9 0 0 1 123 59.3 Q 121.7 60.3 120.4 59.5 A 1.9 1.9 0 0 1 119.6 57.2 A 6.9 6.9 0 0 1 120.1 55.8 L 120.7 54.7 A 23.5 23.5 0 0 1 121.9 53 A 11.8 11.8 0 0 1 122.5 52.1 L 123.9 50.3 A 11.8 11.8 0 0 0 124.5 49.5 Q 125.2 48.5 125.7 47.7 L 126.2 46.8 A 12.2 12.2 0 0 1 126.9 45.8 Q 127.6 44.7 128.2 44.1 A 2.6 2.6 0 0 0 128.1 43.3 L 128 42.4 A 6.6 6.6 0 0 1 126.9 41.9 A 9.1 9.1 0 0 1 125.4 40.7 A 2.1 2.1 0 0 1 124.3 38.1 A 1.3 1.3 0 0 1 124.3 38.1 A 2.4 2.4 0 0 1 127.2 37.8 A 10.4 10.4 0 0 1 129.3 38.7 A 6.7 6.7 0 0 1 129.8 39.1 A 4 4 0 0 0 131.8 37.8 A 7.8 7.8 0 0 0 132.4 37 L 133.1 35.8 A 1.8 1.8 0 0 0 133.3 35.4 L 133.5 34.8 A 0.3 0.3 0 0 0 133.6 34.6 A 2.5 2.5 0 0 1 133.8 34.1 L 133.7 33.4 L 131.6 32.1 A 6.7 6.7 0 0 1 131 31.6 A 4 4 0 0 1 130.2 30.8 A 1.4 1.4 0 0 1 129.7 29.2 A 1.4 1.4 0 0 1 130.2 28.8 L 130.7 28.5 Q 132.7 28.7 134.4 29.3 Q 136.8 30.1 139.3 31.6 A 12.6 12.6 0 0 1 142.4 34.2 A 2.7 2.7 0 0 1 143.4 37.1 A 1 1 0 0 1 142.3 37.4 Q 141.8 37.3 140.6 36.9 L 140.4 36.8 A 0.6 0.6 0 0 0 140.2 36.7 Q 139.9 36.6 139.7 36.5 Q 139.2 36.3 138.8 36.2 Q 137.8 35.9 137.2 36.2 L 136.5 37.3 L 136 37.8 L 135.5 38.8 L 134.9 40.3 A 7.8 7.8 0 0 0 135.2 41.8 L 139.1 44.2 L 140.8 45.1 A 13.6 13.6 0 0 1 142.2 45.9 A 7.1 7.1 0 0 1 142.8 46.3 A 2.4 2.4 0 0 1 143.9 49.8 Q 143.3 50.9 141.9 50.8 A 4.6 4.6 0 0 1 139.5 50.1 A 10 10 0 0 1 138.7 49.6 Z M 82.8 5.7 L 82.6 6.9 A 3.7 3.7 0 0 0 82.6 7.5 Q 82.5 8.1 82.5 8.6 Q 82.5 9.2 82.6 10.3 A 20.1 20.1 0 0 1 82.7 12.1 Q 82.7 12.9 82.5 13.9 L 81.8 17.3 Q 81.7 18.3 81.7 19.1 A 11.1 11.1 0 0 0 81.8 21 Q 81.9 21.6 82.1 22.8 L 82.4 24.6 A 18.1 18.1 0 0 1 82.6 26.5 Q 82.6 27.1 82.4 27.8 A 3.7 3.7 0 0 1 82.4 28.4 L 82.2 29.7 A 3.7 3.7 0 0 0 82.1 30.3 A 8.7 8.7 0 0 0 82 31.6 A 6 6 0 0 0 82.1 32.7 A 2.5 2.5 0 0 0 82.2 33.2 L 82.4 34.2 A 2.5 2.5 0 0 1 82.5 34.7 A 6 6 0 0 1 82.6 35.7 L 82.8 41 A 6.5 6.5 0 0 1 82.2 44 A 2.6 2.6 0 0 1 79.7 45.6 Q 78.4 45.6 77.6 44.5 A 4.3 4.3 0 0 1 77 42.1 A 19.9 19.9 0 0 1 77.3 39.1 A 18.8 18.8 0 0 0 77.6 36.2 A 9.9 9.9 0 0 0 77.5 34.7 A 8.9 8.9 0 0 1 77.3 33.3 A 29.6 29.6 0 0 1 77.5 30.3 Q 77.7 28.2 77.7 27.2 L 77.7 24.1 Q 77.8 22.3 78.1 21 L 78.4 19.9 A 6 6 0 0 0 78.5 18.8 A 3.7 3.7 0 0 0 78.5 18.2 L 78.3 17 A 3.7 3.7 0 0 1 78.2 16.4 A 13.7 13.7 0 0 0 77.8 13.7 A 12.2 12.2 0 0 1 77.4 11 A 32.1 32.1 0 0 0 77.3 9.2 L 77.2 5.7 A 32.1 32.1 0 0 1 77.1 3.9 Q 77.1 2.4 77.9 1.3 A 2.6 2.6 0 0 1 80.2 0 A 2.4 2.4 0 0 1 82.4 1.3 Q 83 2.3 83 4 A 6.5 6.5 0 0 1 82.9 5.1 A 3.7 3.7 0 0 1 82.8 5.7 Z M 24.6 17.4 A 1.6 1.6 0 0 0 24.4 17.6 A 1.8 1.8 0 0 1 24.1 17.8 A 4.6 4.6 0 0 1 23 18.3 A 4 4 0 0 0 21.9 18.7 A 4 4 0 0 0 21 19.5 A 3.4 3.4 0 0 1 20.4 20 A 0.6 0.6 0 0 1 20.3 20.1 A 2 2 0 0 0 19.8 20.3 A 2.9 2.9 0 0 0 19.5 20.5 A 4.9 4.9 0 0 1 18.1 22.1 A 4.3 4.3 0 0 1 17.9 22.2 A 1.6 1.6 0 0 1 16.8 22.5 A 4.3 4.3 0 0 0 15.8 22.4 Q 15.6 22.5 15.2 21.9 A 2 2 0 0 1 15.1 21.8 A 1.9 1.9 0 0 1 14.8 20.3 A 2.4 2.4 0 0 1 15.4 19.3 A 8.2 8.2 0 0 0 15.9 18.8 A 0.9 0.9 0 0 1 16.2 18.5 A 2.2 2.2 0 0 1 16.4 18.4 A 1 1 0 0 0 16.7 18.3 A 2.9 2.9 0 0 0 17.2 17.8 A 2 2 0 0 1 17.7 17.3 A 2 2 0 0 1 18.2 17.1 A 2.6 2.6 0 0 0 18.7 16.9 A 0.7 0.7 0 0 0 18.8 16.8 A 2.8 2.8 0 0 1 19.4 16.2 A 0.4 0.4 0 0 1 19.5 16.2 A 1.8 1.8 0 0 0 19.8 15.9 A 1.7 1.7 0 0 1 20.3 15.4 A 1.2 1.2 0 0 1 20.7 15.2 A 2.9 2.9 0 0 0 21.5 14.9 A 2.8 2.8 0 0 0 21.7 14.7 A 3.5 3.5 0 0 1 22.3 14.3 A 2.8 2.8 0 0 1 22.9 14 A 2.1 2.1 0 0 0 23.4 13.8 A 0.7 0.7 0 0 0 23.5 13.7 A 1.9 1.9 0 0 1 24.4 13.4 A 1.7 1.7 0 0 0 25.4 13.2 A 1.4 1.4 0 0 0 25.5 13.1 A 3.9 3.9 0 0 1 25.9 12.8 A 2 2 0 0 1 26.7 12.5 A 1.8 1.8 0 0 1 27.7 12.6 A 2.9 2.9 0 0 0 29 12.8 A 3.3 3.3 0 0 1 31.7 13.8 A 4.4 4.4 0 0 1 32.3 14.5 A 3.3 3.3 0 0 1 32.6 15.3 A 2.5 2.5 0 0 1 32.8 16.4 A 1.3 1.3 0 0 0 32.9 17.4 A 0.9 0.9 0 0 0 32.9 17.6 A 0.5 0.5 0 0 0 33 17.9 A 0.3 0.3 0 0 0 33 18 Q 33.2 18.2 33.2 18.4 A 7.1 7.1 0 0 0 33.7 19.6 A 1.1 1.1 0 0 1 34 20.3 A 0.5 0.5 0 0 0 34 20.5 A 1.2 1.2 0 0 0 34.2 20.7 Q 34.3 20.9 34.4 21.2 A 1 1 0 0 0 34.5 21.6 A 0.9 0.9 0 0 0 34.7 21.7 A 11.2 11.2 0 0 1 35.3 22.8 A 7.9 7.9 0 0 0 35.7 23.6 A 1.8 1.8 0 0 0 35.9 23.8 A 7.9 7.9 0 0 1 36.8 25 A 3.9 3.9 0 0 1 37 25.3 A 6.3 6.3 0 0 0 37.5 26 A 6.6 6.6 0 0 1 38.2 26.9 A 2.6 2.6 0 0 1 38.5 27.6 A 5.1 5.1 0 0 0 38.8 28.5 A 1.9 1.9 0 0 1 38.9 29.3 A 2.6 2.6 0 0 1 37.8 30.7 A 1.8 1.8 0 0 1 36.1 30.8 A 3 3 0 0 1 34.8 29.8 A 1.2 1.2 0 0 1 34.8 29.7 A 3.2 3.2 0 0 0 34.6 29.4 A 1.8 1.8 0 0 0 34.1 28.9 A 2.8 2.8 0 0 1 33.8 28.4 A 1.9 1.9 0 0 1 33.6 28.2 A 1.7 1.7 0 0 0 33.4 27.6 A 1.6 1.6 0 0 0 33.1 27.2 A 3.9 3.9 0 0 1 32.7 26.7 A 1.5 1.5 0 0 1 32.5 26.5 A 7.1 7.1 0 0 0 31.9 25.3 A 7.1 7.1 0 0 0 31.7 24.9 Q 31.5 24.8 31.5 24.6 Q 31.4 24.3 31.1 23.9 A 6.2 6.2 0 0 1 30.8 23.2 A 3.4 3.4 0 0 0 30.5 22.5 A 2.2 2.2 0 0 1 30.2 22.1 A 7.1 7.1 0 0 1 29.6 21 A 13.2 13.2 0 0 0 29 19.7 Q 28.8 19.2 28.6 18.9 A 3.6 3.6 0 0 0 28.2 18 Q 27.9 17.6 27.2 17.3 A 3.4 3.4 0 0 0 24.6 17.4 Z M 12.1 43.4 A 8.6 8.6 0 0 0 13.3 46.3 A 11.5 11.5 0 0 0 13.5 46.6 Q 14.4 48 14.6 48.4 A 2.1 2.1 0 0 0 14.9 49 A 1.1 1.1 0 0 0 15 49.2 A 11 11 0 0 1 15.8 50.3 A 3.3 3.3 0 0 1 16.2 51.2 A 5.2 5.2 0 0 0 16.9 52.6 A 1.2 1.2 0 0 1 17.2 52.9 A 2.9 2.9 0 0 1 17.5 53.5 A 4.2 4.2 0 0 0 17.6 53.8 A 8 8 0 0 0 18.4 54.9 Q 18.9 55.4 19.7 55.8 A 5.2 5.2 0 0 1 21 57 A 1.3 1.3 0 0 0 21 57.2 A 1.8 1.8 0 0 0 21.8 57.8 A 1.9 1.9 0 0 1 22.5 58.4 A 1.1 1.1 0 0 0 23.6 58.8 A 2.2 2.2 0 0 0 24.7 58.4 A 2.8 2.8 0 0 0 25.1 58.1 A 2.6 2.6 0 0 0 25.7 55.7 Q 25.6 55.3 26.1 54.9 A 3.9 3.9 0 0 0 26.4 54.5 A 1 1 0 0 1 26.6 54.4 A 1.9 1.9 0 0 1 26.9 54.2 A 2.8 2.8 0 0 0 28.3 53.9 A 1.3 1.3 0 0 0 28.7 53.5 A 3.8 3.8 0 0 0 29.5 51.7 A 1.8 1.8 0 0 0 29.3 50.4 A 1.7 1.7 0 0 0 28.9 49.9 A 1.2 1.2 0 0 1 28.3 49.5 A 0.6 0.6 0 0 1 28.3 49.3 Q 28 48.6 28.1 47.8 A 2.3 2.3 0 0 0 27.7 46.7 A 6.7 6.7 0 0 0 27.1 45.9 A 14 14 0 0 1 26.7 45.3 A 8.4 8.4 0 0 1 26.2 44.3 A 6.1 6.1 0 0 0 25.5 42.9 A 7.2 7.2 0 0 0 24.7 41.9 A 11.2 11.2 0 0 1 23.8 40.6 A 7.3 7.3 0 0 1 23.6 40.2 A 2.2 2.2 0 0 0 23.5 40.1 A 3.1 3.1 0 0 0 22.3 39 A 4.4 4.4 0 0 1 20.8 37.6 A 4 4 0 0 0 18.9 35.8 A 2.6 2.6 0 0 1 17.8 35.3 Q 17.3 34.9 16.4 35 A 0.7 0.7 0 0 0 15.8 35.1 A 1.4 1.4 0 0 0 15.5 35.4 A 1 1 0 0 1 15.2 35.7 A 0.3 0.3 0 0 1 15.1 35.8 A 0.5 0.5 0 0 0 15 35.8 A 0.3 0.3 0 0 0 14.9 35.9 Q 14.9 36 14.5 36.2 A 0.4 0.4 0 0 0 14.4 36.3 A 2.8 2.8 0 0 0 13.7 37.2 A 0.9 0.9 0 0 1 13.5 37.5 A 0.6 0.6 0 0 1 12.9 37.5 Q 12.4 37.4 11.9 37.3 A 2.1 2.1 0 0 0 10.8 37.6 A 3 3 0 0 0 10.6 37.8 A 1.5 1.5 0 0 0 10.1 39.1 A 23.9 23.9 0 0 0 10.5 40.4 A 3.9 3.9 0 0 0 10.6 40.7 A 3.6 3.6 0 0 0 11.2 41.4 A 1.9 1.9 0 0 1 11.3 41.5 A 8.3 8.3 0 0 1 12.1 43.4 Z M 9.8 48.9 A 10.5 10.5 0 0 0 9.2 47.9 Q 8.4 46.7 8.5 45.9 A 1.7 1.7 0 0 1 8.8 44.9 A 1.5 1.5 0 0 1 10.8 45.2 A 6.4 6.4 0 0 1 12.4 47.1 A 23.5 23.5 0 0 1 13.8 49.7 A 5.9 5.9 0 0 0 14.3 50.7 A 4.1 4.1 0 0 0 14.5 51 A 5.5 5.5 0 0 1 14.9 52.6 A 4.5 4.5 0 0 0 15.8 54.7 A 9.8 9.8 0 0 1 17.2 58.5 A 7.2 7.2 0 0 0 17.7 60.6 A 11.8 11.8 0 0 1 18.9 64 Q 18.6 64.5 18.9 65.2 Q 19.1 65.9 18.3 66.8 A 3.3 3.3 0 0 1 17.6 67.5 A 1 1 0 0 1 17.1 67.6 Q 16.1 67.7 15.1 66.9 A 1.8 1.8 0 0 1 14.5 66.3 A 4.8 4.8 0 0 1 14 65.2 Q 14 64.1 13.9 63.5 A 3.8 3.8 0 0 0 13.8 62 A 1.7 1.7 0 0 1 13.6 61 A 12.3 12.3 0 0 0 12.8 56.8 A 7.8 7.8 0 0 1 12.2 54.5 A 8.4 8.4 0 0 0 11.4 51.7 A 28.8 28.8 0 0 0 9.8 48.9 Z M 11.5 29.9 A 4.3 4.3 0 0 0 12.4 29.5 A 3.9 3.9 0 0 0 13.6 28.4 A 2 2 0 0 0 13.9 26.5 A 3.4 3.4 0 0 0 13.6 26.1 A 1.9 1.9 0 0 0 12.4 25.2 A 4.1 4.1 0 0 0 10.9 25.5 A 2.6 2.6 0 0 0 10.2 25.8 A 1.7 1.7 0 0 0 9.8 26.1 A 9.9 9.9 0 0 1 8.4 27.3 A 0.8 0.8 0 0 0 8.3 27.4 A 2 2 0 0 0 7.8 27.8 A 1.1 1.1 0 0 1 7.5 28.1 A 0.6 0.6 0 0 1 7.3 28.2 A 12.2 12.2 0 0 0 5.8 28.9 A 7.5 7.5 0 0 0 4.7 30 Q 4.5 30.3 4 30.6 A 3.5 3.5 0 0 0 3.8 30.7 A 2.8 2.8 0 0 0 2.9 31.6 A 1.1 1.1 0 0 1 2.5 32 A 2.6 2.6 0 0 1 2.3 32.1 A 6.4 6.4 0 0 0 0.5 34 A 3.4 3.4 0 0 0 0 36.2 A 3.8 3.8 0 0 0 0.5 37.5 A 2.2 2.2 0 0 0 1 38 A 0.4 0.4 0 0 0 1.1 38.2 Q 1.8 38.9 2.2 39.4 A 1.9 1.9 0 0 0 2.3 39.7 A 1 1 0 0 0 2.4 39.9 A 2.7 2.7 0 0 1 3.1 40.6 A 5.7 5.7 0 0 0 3.9 41.5 A 2.8 2.8 0 0 1 5.3 42.6 Q 5.9 43.3 6.8 43.4 A 1.2 1.2 0 0 0 7.4 43.2 A 1.1 1.1 0 0 0 7.8 42.7 Q 8.1 41.9 7.7 40.8 A 9.4 9.4 0 0 0 7.4 40.4 A 4.5 4.5 0 0 0 6.7 39.5 A 3.4 3.4 0 0 1 6.4 39.2 A 2.8 2.8 0 0 1 6.2 38.8 A 5.3 5.3 0 0 0 5.8 37.7 A 3.1 3.1 0 0 1 5.5 37.3 A 6.1 6.1 0 0 1 5.3 36.8 A 0.1 0.1 0 0 1 5.3 36.7 A 3.6 3.6 0 0 0 5.9 35.4 Q 6 34.9 6.4 34.5 A 2.3 2.3 0 0 0 7.1 33.6 A 3 3 0 0 1 8.4 32.2 A 6.1 6.1 0 0 1 8.6 32.1 A 10.1 10.1 0 0 0 9.1 31.8 A 6.1 6.1 0 0 0 9.9 31.2 A 4.8 4.8 0 0 1 11 30.2 A 5 5 0 0 1 11.5 29.9 Z M 118.2 22.2 L 119.5 22.2 A 11.6 11.6 0 0 0 120.8 22.2 Q 124 22.2 125.4 21.5 A 17 17 0 0 1 128.6 20.4 L 131.9 19.6 A 1.9 1.9 0 0 1 132.5 19.5 A 1.1 1.1 0 0 1 133.1 19.6 A 1.2 1.2 0 0 1 133.5 21.5 A 8.3 8.3 0 0 1 130 24 Q 127.4 25.2 124 26.1 A 37.2 37.2 0 0 1 117.6 27.2 A 7.3 7.3 0 0 1 113.6 26.8 A 2.1 2.1 0 0 1 112.4 23.6 Q 113.8 21.3 116 22.2 A 24.8 24.8 0 0 1 118.2 22.2 Z M 67.5 19.3 L 67.1 19.9 A 1.3 1.3 0 0 0 66.9 20.5 Q 66.5 23.6 65.4 26.1 Q 64.2 28.9 62 30.6 Q 61.5 31 61 31.6 Q 61 31.8 60.8 32 L 60.7 32.1 A 0.2 0.2 0 0 0 60.7 32.2 Q 60.6 32.2 60.6 32.2 A 2.7 2.7 0 0 1 60.2 32.8 Q 59.3 34.1 57.8 34.1 A 2.6 2.6 0 0 1 54.8 31.1 A 2.6 2.6 0 0 1 55 30.3 Q 55.1 30 55.2 29.8 A 0.2 0.2 0 0 1 55.3 29.7 L 55.5 29.4 Q 55.6 29.1 55.7 28.8 Q 55.9 28.4 56.8 27.4 Q 57.2 27 57.7 26.4 L 60.5 23.5 A 4.6 4.6 0 0 0 61.4 22.4 A 2.7 2.7 0 0 1 62.5 20.9 A 5.5 5.5 0 0 0 63.7 18.5 Q 64.3 16.6 65.1 15.9 A 3.4 3.4 0 0 1 65.8 15.5 Q 66.1 15.4 66.5 15.4 A 1.4 1.4 0 0 1 68 17.1 Q 68 18.3 67.5 19.3 Z M 34.5 49.4 A 6.5 6.5 0 0 0 32.6 51.4 A 4 4 0 0 0 32.1 53.7 A 4.4 4.4 0 0 0 32.6 55.1 A 2.3 2.3 0 0 0 33.1 55.6 A 2.7 2.7 0 0 0 35.3 56.1 A 3.6 3.6 0 0 0 36.2 55.6 A 5.6 5.6 0 0 0 37.7 54.2 Q 38.4 53.1 38.5 52.4 A 2.3 2.3 0 0 1 39.2 51.3 A 3 3 0 0 0 40.1 49.9 A 4.4 4.4 0 0 1 41.9 48 A 7.9 7.9 0 0 1 42.1 47.9 A 7.9 7.9 0 0 0 43 47.4 A 5.1 5.1 0 0 0 43.9 46.7 A 5.9 5.9 0 0 1 45.4 45.3 A 5 5 0 0 1 46.1 45 A 6 6 0 0 0 46.9 44.5 A 4.3 4.3 0 0 0 48.1 43.4 A 1.9 1.9 0 0 0 48.5 41.5 A 3.4 3.4 0 0 0 48.2 41.1 A 1.7 1.7 0 0 0 47.1 40.3 Q 46.2 40.2 45.5 40.5 A 2.7 2.7 0 0 0 44.8 40.8 A 2 2 0 0 0 44.4 41.1 A 8.8 8.8 0 0 1 43 42.3 A 2.7 2.7 0 0 0 42.2 43.1 A 1.8 1.8 0 0 1 41.8 43.6 A 0.8 0.8 0 0 1 41.5 43.7 A 12 12 0 0 0 39.6 44.6 A 3.4 3.4 0 0 0 39.4 44.7 Q 38.6 45.3 37.9 46.2 A 4.4 4.4 0 0 1 36.9 47.2 A 5.3 5.3 0 0 0 36.7 47.3 A 3.9 3.9 0 0 0 35.4 48.6 A 1.6 1.6 0 0 1 34.8 49.2 A 5.3 5.3 0 0 1 34.5 49.4 Z M 99.8 32.2 L 98.8 30.7 A 9.7 9.7 0 0 0 97.7 29.4 A 20.3 20.3 0 0 1 95.3 26.8 A 6.6 6.6 0 0 1 94.4 25 L 94 23.3 A 11.7 11.7 0 0 0 92.9 21 A 16.8 16.8 0 0 1 92.1 19.2 Q 91.6 17.9 91.6 17.2 Q 91.6 16.4 92.5 15.9 L 92.6 15.9 A 0.2 0.2 0 0 1 92.8 15.8 L 93.1 15.8 A 2 2 0 0 1 95 16.7 A 4.9 4.9 0 0 1 95.4 17.6 L 95.7 18.5 Q 96.1 19.5 96.8 20.1 A 12.3 12.3 0 0 0 98.2 21.3 A 6.7 6.7 0 0 0 98.9 21.9 L 99.6 22.5 A 3.9 3.9 0 0 1 100.5 23.4 A 3.6 3.6 0 0 1 100.9 24 L 101.7 25.7 Q 102.1 26.3 102.6 26.6 Q 103.9 27.6 104.5 28.4 A 3.9 3.9 0 0 1 105.4 30.7 A 2.7 2.7 0 0 1 102.5 33.9 A 3.4 3.4 0 0 1 99.8 32.2 Z M 151.5 48.6 A 2.4 2.4 0 0 0 155.2 47.9 A 3.5 3.5 0 0 0 154.7 43.8 Q 152.9 41.3 151.3 37.1 Q 150 33.4 149.3 29.8 A 3.2 3.2 0 0 0 149.1 29.3 Q 148.9 29 148.7 28.8 Q 147.5 28.1 146.7 29.4 Q 146 30.5 146.2 33.4 A 31 31 0 0 0 147.2 39.4 A 33.2 33.2 0 0 0 149.1 45.2 A 7.7 7.7 0 0 0 151.5 48.6 Z M 146.2 26 L 145.8 24.8 Q 145.5 24 145 23.4 A 9.3 9.3 0 0 0 142.9 21.7 A 7.8 7.8 0 0 0 140.4 20.7 A 9.8 9.8 0 0 0 138.3 20.6 L 137.1 20.8 A 0.6 0.6 0 0 0 136.8 20.9 A 1.6 1.6 0 0 1 135.8 20.8 Q 135.3 20.5 135.2 19.7 Q 135.1 18.8 135.4 18.3 Q 137.2 15.5 140.5 15.8 A 12.9 12.9 0 0 1 146.1 17.9 Q 148.1 19.1 149.1 21.7 A 5.1 5.1 0 0 1 149.1 26.4 A 1.4 1.4 0 0 1 146.9 26.8 A 1.8 1.8 0 0 1 146.2 26 Z M 19.3 49.2 A 5.1 5.1 0 0 0 18.9 48.3 A 5.6 5.6 0 0 0 18.4 47.8 A 3.5 3.5 0 0 1 17.9 47.1 A 2.6 2.6 0 0 1 17.6 46.4 A 3.6 3.6 0 0 0 17.2 45.7 A 6.8 6.8 0 0 0 17 45.3 Q 16.6 44.7 16.4 44 A 1.3 1.3 0 0 0 16.2 43.5 A 2.2 2.2 0 0 0 15.9 43.1 A 1.1 1.1 0 0 1 15.7 42.9 A 3.7 3.7 0 0 1 15.3 41.2 A 0.8 0.8 0 0 1 15.3 40 A 0.5 0.5 0 0 1 15.3 40 A 1.2 1.2 0 0 0 15.7 39.5 A 0.4 0.4 0 0 1 15.8 39.3 A 0.4 0.4 0 0 1 15.9 39.2 A 1.2 1.2 0 0 0 16.2 39 A 1 1 0 0 1 16.4 38.8 A 1 1 0 0 1 17.5 38.9 A 5.6 5.6 0 0 1 18.4 40 A 5 5 0 0 1 18.5 40.3 Q 19.1 41.1 20 41.7 A 4.7 4.7 0 0 1 21.2 43 A 6 6 0 0 0 21.4 43.3 A 4.5 4.5 0 0 0 22.1 44.2 A 1.9 1.9 0 0 1 22.5 44.6 A 1.9 1.9 0 0 1 22.7 45.1 A 6.2 6.2 0 0 0 23.6 47.1 A 6.5 6.5 0 0 1 24.8 50.5 A 1.4 1.4 0 0 1 24.3 51.4 A 0.7 0.7 0 0 1 24.2 51.4 A 1.4 1.4 0 0 0 23.8 51.8 A 1 1 0 0 1 23.6 52 A 1.3 1.3 0 0 1 23.4 52.1 Q 23.2 52.1 22.9 52.3 A 0.4 0.4 0 0 1 22.9 52.4 A 0.7 0.7 0 0 1 22.4 52.5 A 1.9 1.9 0 0 1 20.9 51.5 A 8.1 8.1 0 0 1 19.7 50.1 A 3.9 3.9 0 0 1 19.3 49.2 Z M 120.8 46.1 L 120.2 46.4 A 1 1 0 0 0 119.8 46.7 A 10.7 10.7 0 0 1 115.7 49.5 Q 112.6 51 111.2 50.1 A 2.1 2.1 0 0 1 110.5 46.8 A 4.8 4.8 0 0 1 113.5 45.2 L 115.4 44.8 Q 116.6 44.6 117.1 44.4 L 117.6 44.2 A 3 3 0 0 0 118.2 43.8 L 119.4 43 A 3.7 3.7 0 0 1 120.3 42.6 A 1.8 1.8 0 0 1 121.8 42.7 A 1.3 1.3 0 0 1 122.2 44.7 A 3.8 3.8 0 0 1 120.8 46.1 Z M 133.4 50.8 L 134.1 50.6 L 134.7 50.9 A 2.8 2.8 0 0 1 135 51.1 A 1.1 1.1 0 0 1 135.6 52.4 A 6.5 6.5 0 0 0 135.6 54.8 L 136.1 57.1 A 0.6 0.6 0 0 1 136.2 57.4 A 10.3 10.3 0 0 1 136.7 59.8 A 3.8 3.8 0 0 1 136.2 62.1 Q 134.9 64.2 133 63.1 A 5.3 5.3 0 0 1 131.5 58.5 A 22.8 22.8 0 0 1 131.6 57.4 A 13.4 13.4 0 0 1 132.8 51.2 A 1.2 1.2 0 0 1 133.4 50.8 Z M 123.4 38.1 Q 123 38.7 120.9 38.2 Q 119.1 37.9 118.3 37.3 A 3.6 3.6 0 0 1 117.1 35.8 A 1.9 1.9 0 0 1 116.8 34 A 2.2 2.2 0 0 1 118.8 33.2 A 4.1 4.1 0 0 1 121.1 33.7 A 6.2 6.2 0 0 1 123 35.6 Q 124 37.1 123.4 38.1 Z"
            ></path>
          </g>
          <!---->
          <!---->
          <!---->
          <!---->
          <!---->
          <!---->
          <!---->
        </g>
        <g fill-rule="evenodd" class="tp-name" fill="#d6ad60">
          <g>
            <path
              d="M 18.8 26.5 A 8.2 8.2 0 0 0 19.4 27.7 A 6.6 6.6 0 0 0 21 29.4 Q 21.9 30.2 22.3 31.4 A 7.6 7.6 0 0 0 22.9 32.7 A 2.4 2.4 0 0 0 23 32.9 A 3.8 3.8 0 0 1 23.2 33.1 A 4.9 4.9 0 0 1 23.7 34.2 A 7 7 0 0 0 24.4 35.7 A 3.5 3.5 0 0 0 24.8 36.2 A 7.5 7.5 0 0 1 25.3 37 A 10.5 10.5 0 0 1 25.8 37.9 A 14.9 14.9 0 0 0 26.2 38.6 A 17.3 17.3 0 0 0 27.1 39.8 A 3 3 0 0 1 27.5 40.3 A 4.7 4.7 0 0 1 28 41.6 A 3.5 3.5 0 0 0 28.4 42.3 A 5 5 0 0 0 29.9 43.8 Q 31.3 44.7 32.9 44.2 A 2.1 2.1 0 0 0 33.4 44 A 2.4 2.4 0 0 0 34.2 43 A 1.1 1.1 0 0 1 34.7 42.4 A 2.3 2.3 0 0 1 35.3 42.1 A 3.5 3.5 0 0 0 36 41.8 A 2.8 2.8 0 0 0 36.8 41.1 A 3.1 3.1 0 0 1 37.6 40.3 A 3.5 3.5 0 0 1 38.2 40 A 2.9 2.9 0 0 0 38.7 39.8 A 3.8 3.8 0 0 0 40 38.2 A 5.5 5.5 0 0 1 41.9 36.4 A 19.3 19.3 0 0 1 43.6 35.5 Q 46.9 33.9 48.5 34.7 A 3.3 3.3 0 0 1 50.2 35.9 A 2.2 2.2 0 0 1 50.3 36.1 A 2.8 2.8 0 0 0 50.4 36.3 A 7.7 7.7 0 0 0 51.4 37.5 A 7.8 7.8 0 0 1 52.9 39.2 A 3.9 3.9 0 0 1 53.5 40.9 A 12.3 12.3 0 0 1 53.4 43.9 A 3.2 3.2 0 0 0 53 45.3 A 2.4 2.4 0 0 1 52.4 46.8 Q 52.3 47.1 52 47.2 A 1.9 1.9 0 0 0 51.7 47.4 A 1.5 1.5 0 0 0 51.5 47.5 A 0.4 0.4 0 0 1 51.4 47.7 A 4.4 4.4 0 0 1 49.7 48 Q 48.5 47.8 47.5 48 A 1.3 1.3 0 0 0 47.4 48.1 A 2.4 2.4 0 0 0 46.5 49.5 A 1.1 1.1 0 0 0 46.7 50.4 A 2.8 2.8 0 0 0 47.4 51.2 A 4.2 4.2 0 0 0 49.4 52.2 A 2.5 2.5 0 0 1 50.8 52.7 A 4.4 4.4 0 0 0 53.1 51.9 A 8.7 8.7 0 0 0 53.4 51.7 A 2.8 2.8 0 0 0 54.5 50.7 A 1.5 1.5 0 0 1 55.1 50.1 A 2.4 2.4 0 0 0 55.9 48.9 A 11.6 11.6 0 0 0 57.8 45.9 A 5.3 5.3 0 0 0 57.6 43.1 A 3.8 3.8 0 0 1 57.6 41.3 A 6 6 0 0 0 57 38.3 Q 56.4 36.7 55.5 35.9 A 5 5 0 0 1 54.5 34.7 A 2.2 2.2 0 0 1 54.3 34.4 A 13.7 13.7 0 0 0 53.7 33.3 A 2.6 2.6 0 0 0 52.4 32.1 A 5.2 5.2 0 0 1 51.1 31.2 A 182.4 182.4 0 0 0 48.7 30.5 A 7.3 7.3 0 0 0 44.3 30.9 A 7.4 7.4 0 0 0 42.3 31.7 A 3.1 3.1 0 0 0 41.7 32.2 A 11.2 11.2 0 0 1 39.4 34.1 A 10.4 10.4 0 0 1 38.6 34.6 A 6.8 6.8 0 0 0 38 34.9 A 9.4 9.4 0 0 0 35.9 36.8 A 9.5 9.5 0 0 1 33.8 38.3 Q 32.7 39.1 32.1 39.1 A 1.5 1.5 0 0 1 31.3 38.4 A 3.4 3.4 0 0 1 31.2 38.2 A 42.4 42.4 0 0 0 30.6 37.2 A 8.3 8.3 0 0 0 29.8 36.1 A 4.5 4.5 0 0 1 29.5 35.6 A 5.2 5.2 0 0 0 29 34.4 A 0.7 0.7 0 0 0 28.9 34.3 Q 28.5 33.9 28.4 33.5 A 4.8 4.8 0 0 0 28 32.7 A 11.1 11.1 0 0 0 27.1 31.5 A 2.3 2.3 0 0 1 26.7 31.1 A 4.6 4.6 0 0 1 26.2 29.9 A 6.8 6.8 0 0 0 25.7 28.9 A 2 2 0 0 0 25.6 28.6 A 2.4 2.4 0 0 1 25.2 28.2 A 3.5 3.5 0 0 1 24.8 27.4 A 5.1 5.1 0 0 0 24.6 26.9 A 25.7 25.7 0 0 0 23.7 25.6 A 4.6 4.6 0 0 0 21 23.6 A 2 2 0 0 0 19.6 23.9 A 2.7 2.7 0 0 0 19.1 24.3 Q 18.3 25.1 18.8 26.5 Z M 138.7 49.6 L 137.2 48.2 A 11.8 11.8 0 0 0 136.4 47.6 L 135.6 47.2 A 16.6 16.6 0 0 0 134.4 46.5 Q 133.7 46.1 133.2 45.9 Q 132.7 45.5 132.5 45.5 A 2.4 2.4 0 0 1 132 45.7 A 2.1 2.1 0 0 0 131.4 46 A 20.3 20.3 0 0 1 130.6 47.4 A 42.1 42.1 0 0 1 129.5 49.1 L 128.4 50.6 A 35.1 35.1 0 0 0 127.4 52.1 L 124.8 57.2 A 6.9 6.9 0 0 1 123 59.3 Q 121.7 60.3 120.4 59.5 A 1.9 1.9 0 0 1 119.6 57.2 A 6.9 6.9 0 0 1 120.1 55.8 L 120.7 54.7 A 23.5 23.5 0 0 1 121.9 53 A 11.8 11.8 0 0 1 122.5 52.1 L 123.9 50.3 A 11.8 11.8 0 0 0 124.5 49.5 Q 125.2 48.5 125.7 47.7 L 126.2 46.8 A 12.2 12.2 0 0 1 126.9 45.8 Q 127.6 44.7 128.2 44.1 A 2.6 2.6 0 0 0 128.1 43.3 L 128 42.4 A 6.6 6.6 0 0 1 126.9 41.9 A 9.1 9.1 0 0 1 125.4 40.7 A 2.1 2.1 0 0 1 124.3 38.1 A 1.3 1.3 0 0 1 124.3 38.1 A 2.4 2.4 0 0 1 127.2 37.8 A 10.4 10.4 0 0 1 129.3 38.7 A 6.7 6.7 0 0 1 129.8 39.1 A 4 4 0 0 0 131.8 37.8 A 7.8 7.8 0 0 0 132.4 37 L 133.1 35.8 A 1.8 1.8 0 0 0 133.3 35.4 L 133.5 34.8 A 0.3 0.3 0 0 0 133.6 34.6 A 2.5 2.5 0 0 1 133.8 34.1 L 133.7 33.4 L 131.6 32.1 A 6.7 6.7 0 0 1 131 31.6 A 4 4 0 0 1 130.2 30.8 A 1.4 1.4 0 0 1 129.7 29.2 A 1.4 1.4 0 0 1 130.2 28.8 L 130.7 28.5 Q 132.7 28.7 134.4 29.3 Q 136.8 30.1 139.3 31.6 A 12.6 12.6 0 0 1 142.4 34.2 A 2.7 2.7 0 0 1 143.4 37.1 A 1 1 0 0 1 142.3 37.4 Q 141.8 37.3 140.6 36.9 L 140.4 36.8 A 0.6 0.6 0 0 0 140.2 36.7 Q 139.9 36.6 139.7 36.5 Q 139.2 36.3 138.8 36.2 Q 137.8 35.9 137.2 36.2 L 136.5 37.3 L 136 37.8 L 135.5 38.8 L 134.9 40.3 A 7.8 7.8 0 0 0 135.2 41.8 L 139.1 44.2 L 140.8 45.1 A 13.6 13.6 0 0 1 142.2 45.9 A 7.1 7.1 0 0 1 142.8 46.3 A 2.4 2.4 0 0 1 143.9 49.8 Q 143.3 50.9 141.9 50.8 A 4.6 4.6 0 0 1 139.5 50.1 A 10 10 0 0 1 138.7 49.6 Z M 82.8 5.7 L 82.6 6.9 A 3.7 3.7 0 0 0 82.6 7.5 Q 82.5 8.1 82.5 8.6 Q 82.5 9.2 82.6 10.3 A 20.1 20.1 0 0 1 82.7 12.1 Q 82.7 12.9 82.5 13.9 L 81.8 17.3 Q 81.7 18.3 81.7 19.1 A 11.1 11.1 0 0 0 81.8 21 Q 81.9 21.6 82.1 22.8 L 82.4 24.6 A 18.1 18.1 0 0 1 82.6 26.5 Q 82.6 27.1 82.4 27.8 A 3.7 3.7 0 0 1 82.4 28.4 L 82.2 29.7 A 3.7 3.7 0 0 0 82.1 30.3 A 8.7 8.7 0 0 0 82 31.6 A 6 6 0 0 0 82.1 32.7 A 2.5 2.5 0 0 0 82.2 33.2 L 82.4 34.2 A 2.5 2.5 0 0 1 82.5 34.7 A 6 6 0 0 1 82.6 35.7 L 82.8 41 A 6.5 6.5 0 0 1 82.2 44 A 2.6 2.6 0 0 1 79.7 45.6 Q 78.4 45.6 77.6 44.5 A 4.3 4.3 0 0 1 77 42.1 A 19.9 19.9 0 0 1 77.3 39.1 A 18.8 18.8 0 0 0 77.6 36.2 A 9.9 9.9 0 0 0 77.5 34.7 A 8.9 8.9 0 0 1 77.3 33.3 A 29.6 29.6 0 0 1 77.5 30.3 Q 77.7 28.2 77.7 27.2 L 77.7 24.1 Q 77.8 22.3 78.1 21 L 78.4 19.9 A 6 6 0 0 0 78.5 18.8 A 3.7 3.7 0 0 0 78.5 18.2 L 78.3 17 A 3.7 3.7 0 0 1 78.2 16.4 A 13.7 13.7 0 0 0 77.8 13.7 A 12.2 12.2 0 0 1 77.4 11 A 32.1 32.1 0 0 0 77.3 9.2 L 77.2 5.7 A 32.1 32.1 0 0 1 77.1 3.9 Q 77.1 2.4 77.9 1.3 A 2.6 2.6 0 0 1 80.2 0 A 2.4 2.4 0 0 1 82.4 1.3 Q 83 2.3 83 4 A 6.5 6.5 0 0 1 82.9 5.1 A 3.7 3.7 0 0 1 82.8 5.7 Z M 24.6 17.4 A 1.6 1.6 0 0 0 24.4 17.6 A 1.8 1.8 0 0 1 24.1 17.8 A 4.6 4.6 0 0 1 23 18.3 A 4 4 0 0 0 21.9 18.7 A 4 4 0 0 0 21 19.5 A 3.4 3.4 0 0 1 20.4 20 A 0.6 0.6 0 0 1 20.3 20.1 A 2 2 0 0 0 19.8 20.3 A 2.9 2.9 0 0 0 19.5 20.5 A 4.9 4.9 0 0 1 18.1 22.1 A 4.3 4.3 0 0 1 17.9 22.2 A 1.6 1.6 0 0 1 16.8 22.5 A 4.3 4.3 0 0 0 15.8 22.4 Q 15.6 22.5 15.2 21.9 A 2 2 0 0 1 15.1 21.8 A 1.9 1.9 0 0 1 14.8 20.3 A 2.4 2.4 0 0 1 15.4 19.3 A 8.2 8.2 0 0 0 15.9 18.8 A 0.9 0.9 0 0 1 16.2 18.5 A 2.2 2.2 0 0 1 16.4 18.4 A 1 1 0 0 0 16.7 18.3 A 2.9 2.9 0 0 0 17.2 17.8 A 2 2 0 0 1 17.7 17.3 A 2 2 0 0 1 18.2 17.1 A 2.6 2.6 0 0 0 18.7 16.9 A 0.7 0.7 0 0 0 18.8 16.8 A 2.8 2.8 0 0 1 19.4 16.2 A 0.4 0.4 0 0 1 19.5 16.2 A 1.8 1.8 0 0 0 19.8 15.9 A 1.7 1.7 0 0 1 20.3 15.4 A 1.2 1.2 0 0 1 20.7 15.2 A 2.9 2.9 0 0 0 21.5 14.9 A 2.8 2.8 0 0 0 21.7 14.7 A 3.5 3.5 0 0 1 22.3 14.3 A 2.8 2.8 0 0 1 22.9 14 A 2.1 2.1 0 0 0 23.4 13.8 A 0.7 0.7 0 0 0 23.5 13.7 A 1.9 1.9 0 0 1 24.4 13.4 A 1.7 1.7 0 0 0 25.4 13.2 A 1.4 1.4 0 0 0 25.5 13.1 A 3.9 3.9 0 0 1 25.9 12.8 A 2 2 0 0 1 26.7 12.5 A 1.8 1.8 0 0 1 27.7 12.6 A 2.9 2.9 0 0 0 29 12.8 A 3.3 3.3 0 0 1 31.7 13.8 A 4.4 4.4 0 0 1 32.3 14.5 A 3.3 3.3 0 0 1 32.6 15.3 A 2.5 2.5 0 0 1 32.8 16.4 A 1.3 1.3 0 0 0 32.9 17.4 A 0.9 0.9 0 0 0 32.9 17.6 A 0.5 0.5 0 0 0 33 17.9 A 0.3 0.3 0 0 0 33 18 Q 33.2 18.2 33.2 18.4 A 7.1 7.1 0 0 0 33.7 19.6 A 1.1 1.1 0 0 1 34 20.3 A 0.5 0.5 0 0 0 34 20.5 A 1.2 1.2 0 0 0 34.2 20.7 Q 34.3 20.9 34.4 21.2 A 1 1 0 0 0 34.5 21.6 A 0.9 0.9 0 0 0 34.7 21.7 A 11.2 11.2 0 0 1 35.3 22.8 A 7.9 7.9 0 0 0 35.7 23.6 A 1.8 1.8 0 0 0 35.9 23.8 A 7.9 7.9 0 0 1 36.8 25 A 3.9 3.9 0 0 1 37 25.3 A 6.3 6.3 0 0 0 37.5 26 A 6.6 6.6 0 0 1 38.2 26.9 A 2.6 2.6 0 0 1 38.5 27.6 A 5.1 5.1 0 0 0 38.8 28.5 A 1.9 1.9 0 0 1 38.9 29.3 A 2.6 2.6 0 0 1 37.8 30.7 A 1.8 1.8 0 0 1 36.1 30.8 A 3 3 0 0 1 34.8 29.8 A 1.2 1.2 0 0 1 34.8 29.7 A 3.2 3.2 0 0 0 34.6 29.4 A 1.8 1.8 0 0 0 34.1 28.9 A 2.8 2.8 0 0 1 33.8 28.4 A 1.9 1.9 0 0 1 33.6 28.2 A 1.7 1.7 0 0 0 33.4 27.6 A 1.6 1.6 0 0 0 33.1 27.2 A 3.9 3.9 0 0 1 32.7 26.7 A 1.5 1.5 0 0 1 32.5 26.5 A 7.1 7.1 0 0 0 31.9 25.3 A 7.1 7.1 0 0 0 31.7 24.9 Q 31.5 24.8 31.5 24.6 Q 31.4 24.3 31.1 23.9 A 6.2 6.2 0 0 1 30.8 23.2 A 3.4 3.4 0 0 0 30.5 22.5 A 2.2 2.2 0 0 1 30.2 22.1 A 7.1 7.1 0 0 1 29.6 21 A 13.2 13.2 0 0 0 29 19.7 Q 28.8 19.2 28.6 18.9 A 3.6 3.6 0 0 0 28.2 18 Q 27.9 17.6 27.2 17.3 A 3.4 3.4 0 0 0 24.6 17.4 Z M 12.1 43.4 A 8.6 8.6 0 0 0 13.3 46.3 A 11.5 11.5 0 0 0 13.5 46.6 Q 14.4 48 14.6 48.4 A 2.1 2.1 0 0 0 14.9 49 A 1.1 1.1 0 0 0 15 49.2 A 11 11 0 0 1 15.8 50.3 A 3.3 3.3 0 0 1 16.2 51.2 A 5.2 5.2 0 0 0 16.9 52.6 A 1.2 1.2 0 0 1 17.2 52.9 A 2.9 2.9 0 0 1 17.5 53.5 A 4.2 4.2 0 0 0 17.6 53.8 A 8 8 0 0 0 18.4 54.9 Q 18.9 55.4 19.7 55.8 A 5.2 5.2 0 0 1 21 57 A 1.3 1.3 0 0 0 21 57.2 A 1.8 1.8 0 0 0 21.8 57.8 A 1.9 1.9 0 0 1 22.5 58.4 A 1.1 1.1 0 0 0 23.6 58.8 A 2.2 2.2 0 0 0 24.7 58.4 A 2.8 2.8 0 0 0 25.1 58.1 A 2.6 2.6 0 0 0 25.7 55.7 Q 25.6 55.3 26.1 54.9 A 3.9 3.9 0 0 0 26.4 54.5 A 1 1 0 0 1 26.6 54.4 A 1.9 1.9 0 0 1 26.9 54.2 A 2.8 2.8 0 0 0 28.3 53.9 A 1.3 1.3 0 0 0 28.7 53.5 A 3.8 3.8 0 0 0 29.5 51.7 A 1.8 1.8 0 0 0 29.3 50.4 A 1.7 1.7 0 0 0 28.9 49.9 A 1.2 1.2 0 0 1 28.3 49.5 A 0.6 0.6 0 0 1 28.3 49.3 Q 28 48.6 28.1 47.8 A 2.3 2.3 0 0 0 27.7 46.7 A 6.7 6.7 0 0 0 27.1 45.9 A 14 14 0 0 1 26.7 45.3 A 8.4 8.4 0 0 1 26.2 44.3 A 6.1 6.1 0 0 0 25.5 42.9 A 7.2 7.2 0 0 0 24.7 41.9 A 11.2 11.2 0 0 1 23.8 40.6 A 7.3 7.3 0 0 1 23.6 40.2 A 2.2 2.2 0 0 0 23.5 40.1 A 3.1 3.1 0 0 0 22.3 39 A 4.4 4.4 0 0 1 20.8 37.6 A 4 4 0 0 0 18.9 35.8 A 2.6 2.6 0 0 1 17.8 35.3 Q 17.3 34.9 16.4 35 A 0.7 0.7 0 0 0 15.8 35.1 A 1.4 1.4 0 0 0 15.5 35.4 A 1 1 0 0 1 15.2 35.7 A 0.3 0.3 0 0 1 15.1 35.8 A 0.5 0.5 0 0 0 15 35.8 A 0.3 0.3 0 0 0 14.9 35.9 Q 14.9 36 14.5 36.2 A 0.4 0.4 0 0 0 14.4 36.3 A 2.8 2.8 0 0 0 13.7 37.2 A 0.9 0.9 0 0 1 13.5 37.5 A 0.6 0.6 0 0 1 12.9 37.5 Q 12.4 37.4 11.9 37.3 A 2.1 2.1 0 0 0 10.8 37.6 A 3 3 0 0 0 10.6 37.8 A 1.5 1.5 0 0 0 10.1 39.1 A 23.9 23.9 0 0 0 10.5 40.4 A 3.9 3.9 0 0 0 10.6 40.7 A 3.6 3.6 0 0 0 11.2 41.4 A 1.9 1.9 0 0 1 11.3 41.5 A 8.3 8.3 0 0 1 12.1 43.4 Z M 9.8 48.9 A 10.5 10.5 0 0 0 9.2 47.9 Q 8.4 46.7 8.5 45.9 A 1.7 1.7 0 0 1 8.8 44.9 A 1.5 1.5 0 0 1 10.8 45.2 A 6.4 6.4 0 0 1 12.4 47.1 A 23.5 23.5 0 0 1 13.8 49.7 A 5.9 5.9 0 0 0 14.3 50.7 A 4.1 4.1 0 0 0 14.5 51 A 5.5 5.5 0 0 1 14.9 52.6 A 4.5 4.5 0 0 0 15.8 54.7 A 9.8 9.8 0 0 1 17.2 58.5 A 7.2 7.2 0 0 0 17.7 60.6 A 11.8 11.8 0 0 1 18.9 64 Q 18.6 64.5 18.9 65.2 Q 19.1 65.9 18.3 66.8 A 3.3 3.3 0 0 1 17.6 67.5 A 1 1 0 0 1 17.1 67.6 Q 16.1 67.7 15.1 66.9 A 1.8 1.8 0 0 1 14.5 66.3 A 4.8 4.8 0 0 1 14 65.2 Q 14 64.1 13.9 63.5 A 3.8 3.8 0 0 0 13.8 62 A 1.7 1.7 0 0 1 13.6 61 A 12.3 12.3 0 0 0 12.8 56.8 A 7.8 7.8 0 0 1 12.2 54.5 A 8.4 8.4 0 0 0 11.4 51.7 A 28.8 28.8 0 0 0 9.8 48.9 Z M 11.5 29.9 A 4.3 4.3 0 0 0 12.4 29.5 A 3.9 3.9 0 0 0 13.6 28.4 A 2 2 0 0 0 13.9 26.5 A 3.4 3.4 0 0 0 13.6 26.1 A 1.9 1.9 0 0 0 12.4 25.2 A 4.1 4.1 0 0 0 10.9 25.5 A 2.6 2.6 0 0 0 10.2 25.8 A 1.7 1.7 0 0 0 9.8 26.1 A 9.9 9.9 0 0 1 8.4 27.3 A 0.8 0.8 0 0 0 8.3 27.4 A 2 2 0 0 0 7.8 27.8 A 1.1 1.1 0 0 1 7.5 28.1 A 0.6 0.6 0 0 1 7.3 28.2 A 12.2 12.2 0 0 0 5.8 28.9 A 7.5 7.5 0 0 0 4.7 30 Q 4.5 30.3 4 30.6 A 3.5 3.5 0 0 0 3.8 30.7 A 2.8 2.8 0 0 0 2.9 31.6 A 1.1 1.1 0 0 1 2.5 32 A 2.6 2.6 0 0 1 2.3 32.1 A 6.4 6.4 0 0 0 0.5 34 A 3.4 3.4 0 0 0 0 36.2 A 3.8 3.8 0 0 0 0.5 37.5 A 2.2 2.2 0 0 0 1 38 A 0.4 0.4 0 0 0 1.1 38.2 Q 1.8 38.9 2.2 39.4 A 1.9 1.9 0 0 0 2.3 39.7 A 1 1 0 0 0 2.4 39.9 A 2.7 2.7 0 0 1 3.1 40.6 A 5.7 5.7 0 0 0 3.9 41.5 A 2.8 2.8 0 0 1 5.3 42.6 Q 5.9 43.3 6.8 43.4 A 1.2 1.2 0 0 0 7.4 43.2 A 1.1 1.1 0 0 0 7.8 42.7 Q 8.1 41.9 7.7 40.8 A 9.4 9.4 0 0 0 7.4 40.4 A 4.5 4.5 0 0 0 6.7 39.5 A 3.4 3.4 0 0 1 6.4 39.2 A 2.8 2.8 0 0 1 6.2 38.8 A 5.3 5.3 0 0 0 5.8 37.7 A 3.1 3.1 0 0 1 5.5 37.3 A 6.1 6.1 0 0 1 5.3 36.8 A 0.1 0.1 0 0 1 5.3 36.7 A 3.6 3.6 0 0 0 5.9 35.4 Q 6 34.9 6.4 34.5 A 2.3 2.3 0 0 0 7.1 33.6 A 3 3 0 0 1 8.4 32.2 A 6.1 6.1 0 0 1 8.6 32.1 A 10.1 10.1 0 0 0 9.1 31.8 A 6.1 6.1 0 0 0 9.9 31.2 A 4.8 4.8 0 0 1 11 30.2 A 5 5 0 0 1 11.5 29.9 Z M 118.2 22.2 L 119.5 22.2 A 11.6 11.6 0 0 0 120.8 22.2 Q 124 22.2 125.4 21.5 A 17 17 0 0 1 128.6 20.4 L 131.9 19.6 A 1.9 1.9 0 0 1 132.5 19.5 A 1.1 1.1 0 0 1 133.1 19.6 A 1.2 1.2 0 0 1 133.5 21.5 A 8.3 8.3 0 0 1 130 24 Q 127.4 25.2 124 26.1 A 37.2 37.2 0 0 1 117.6 27.2 A 7.3 7.3 0 0 1 113.6 26.8 A 2.1 2.1 0 0 1 112.4 23.6 Q 113.8 21.3 116 22.2 A 24.8 24.8 0 0 1 118.2 22.2 Z M 67.5 19.3 L 67.1 19.9 A 1.3 1.3 0 0 0 66.9 20.5 Q 66.5 23.6 65.4 26.1 Q 64.2 28.9 62 30.6 Q 61.5 31 61 31.6 Q 61 31.8 60.8 32 L 60.7 32.1 A 0.2 0.2 0 0 0 60.7 32.2 Q 60.6 32.2 60.6 32.2 A 2.7 2.7 0 0 1 60.2 32.8 Q 59.3 34.1 57.8 34.1 A 2.6 2.6 0 0 1 54.8 31.1 A 2.6 2.6 0 0 1 55 30.3 Q 55.1 30 55.2 29.8 A 0.2 0.2 0 0 1 55.3 29.7 L 55.5 29.4 Q 55.6 29.1 55.7 28.8 Q 55.9 28.4 56.8 27.4 Q 57.2 27 57.7 26.4 L 60.5 23.5 A 4.6 4.6 0 0 0 61.4 22.4 A 2.7 2.7 0 0 1 62.5 20.9 A 5.5 5.5 0 0 0 63.7 18.5 Q 64.3 16.6 65.1 15.9 A 3.4 3.4 0 0 1 65.8 15.5 Q 66.1 15.4 66.5 15.4 A 1.4 1.4 0 0 1 68 17.1 Q 68 18.3 67.5 19.3 Z M 34.5 49.4 A 6.5 6.5 0 0 0 32.6 51.4 A 4 4 0 0 0 32.1 53.7 A 4.4 4.4 0 0 0 32.6 55.1 A 2.3 2.3 0 0 0 33.1 55.6 A 2.7 2.7 0 0 0 35.3 56.1 A 3.6 3.6 0 0 0 36.2 55.6 A 5.6 5.6 0 0 0 37.7 54.2 Q 38.4 53.1 38.5 52.4 A 2.3 2.3 0 0 1 39.2 51.3 A 3 3 0 0 0 40.1 49.9 A 4.4 4.4 0 0 1 41.9 48 A 7.9 7.9 0 0 1 42.1 47.9 A 7.9 7.9 0 0 0 43 47.4 A 5.1 5.1 0 0 0 43.9 46.7 A 5.9 5.9 0 0 1 45.4 45.3 A 5 5 0 0 1 46.1 45 A 6 6 0 0 0 46.9 44.5 A 4.3 4.3 0 0 0 48.1 43.4 A 1.9 1.9 0 0 0 48.5 41.5 A 3.4 3.4 0 0 0 48.2 41.1 A 1.7 1.7 0 0 0 47.1 40.3 Q 46.2 40.2 45.5 40.5 A 2.7 2.7 0 0 0 44.8 40.8 A 2 2 0 0 0 44.4 41.1 A 8.8 8.8 0 0 1 43 42.3 A 2.7 2.7 0 0 0 42.2 43.1 A 1.8 1.8 0 0 1 41.8 43.6 A 0.8 0.8 0 0 1 41.5 43.7 A 12 12 0 0 0 39.6 44.6 A 3.4 3.4 0 0 0 39.4 44.7 Q 38.6 45.3 37.9 46.2 A 4.4 4.4 0 0 1 36.9 47.2 A 5.3 5.3 0 0 0 36.7 47.3 A 3.9 3.9 0 0 0 35.4 48.6 A 1.6 1.6 0 0 1 34.8 49.2 A 5.3 5.3 0 0 1 34.5 49.4 Z M 99.8 32.2 L 98.8 30.7 A 9.7 9.7 0 0 0 97.7 29.4 A 20.3 20.3 0 0 1 95.3 26.8 A 6.6 6.6 0 0 1 94.4 25 L 94 23.3 A 11.7 11.7 0 0 0 92.9 21 A 16.8 16.8 0 0 1 92.1 19.2 Q 91.6 17.9 91.6 17.2 Q 91.6 16.4 92.5 15.9 L 92.6 15.9 A 0.2 0.2 0 0 1 92.8 15.8 L 93.1 15.8 A 2 2 0 0 1 95 16.7 A 4.9 4.9 0 0 1 95.4 17.6 L 95.7 18.5 Q 96.1 19.5 96.8 20.1 A 12.3 12.3 0 0 0 98.2 21.3 A 6.7 6.7 0 0 0 98.9 21.9 L 99.6 22.5 A 3.9 3.9 0 0 1 100.5 23.4 A 3.6 3.6 0 0 1 100.9 24 L 101.7 25.7 Q 102.1 26.3 102.6 26.6 Q 103.9 27.6 104.5 28.4 A 3.9 3.9 0 0 1 105.4 30.7 A 2.7 2.7 0 0 1 102.5 33.9 A 3.4 3.4 0 0 1 99.8 32.2 Z M 151.5 48.6 A 2.4 2.4 0 0 0 155.2 47.9 A 3.5 3.5 0 0 0 154.7 43.8 Q 152.9 41.3 151.3 37.1 Q 150 33.4 149.3 29.8 A 3.2 3.2 0 0 0 149.1 29.3 Q 148.9 29 148.7 28.8 Q 147.5 28.1 146.7 29.4 Q 146 30.5 146.2 33.4 A 31 31 0 0 0 147.2 39.4 A 33.2 33.2 0 0 0 149.1 45.2 A 7.7 7.7 0 0 0 151.5 48.6 Z M 146.2 26 L 145.8 24.8 Q 145.5 24 145 23.4 A 9.3 9.3 0 0 0 142.9 21.7 A 7.8 7.8 0 0 0 140.4 20.7 A 9.8 9.8 0 0 0 138.3 20.6 L 137.1 20.8 A 0.6 0.6 0 0 0 136.8 20.9 A 1.6 1.6 0 0 1 135.8 20.8 Q 135.3 20.5 135.2 19.7 Q 135.1 18.8 135.4 18.3 Q 137.2 15.5 140.5 15.8 A 12.9 12.9 0 0 1 146.1 17.9 Q 148.1 19.1 149.1 21.7 A 5.1 5.1 0 0 1 149.1 26.4 A 1.4 1.4 0 0 1 146.9 26.8 A 1.8 1.8 0 0 1 146.2 26 Z M 19.3 49.2 A 5.1 5.1 0 0 0 18.9 48.3 A 5.6 5.6 0 0 0 18.4 47.8 A 3.5 3.5 0 0 1 17.9 47.1 A 2.6 2.6 0 0 1 17.6 46.4 A 3.6 3.6 0 0 0 17.2 45.7 A 6.8 6.8 0 0 0 17 45.3 Q 16.6 44.7 16.4 44 A 1.3 1.3 0 0 0 16.2 43.5 A 2.2 2.2 0 0 0 15.9 43.1 A 1.1 1.1 0 0 1 15.7 42.9 A 3.7 3.7 0 0 1 15.3 41.2 A 0.8 0.8 0 0 1 15.3 40 A 0.5 0.5 0 0 1 15.3 40 A 1.2 1.2 0 0 0 15.7 39.5 A 0.4 0.4 0 0 1 15.8 39.3 A 0.4 0.4 0 0 1 15.9 39.2 A 1.2 1.2 0 0 0 16.2 39 A 1 1 0 0 1 16.4 38.8 A 1 1 0 0 1 17.5 38.9 A 5.6 5.6 0 0 1 18.4 40 A 5 5 0 0 1 18.5 40.3 Q 19.1 41.1 20 41.7 A 4.7 4.7 0 0 1 21.2 43 A 6 6 0 0 0 21.4 43.3 A 4.5 4.5 0 0 0 22.1 44.2 A 1.9 1.9 0 0 1 22.5 44.6 A 1.9 1.9 0 0 1 22.7 45.1 A 6.2 6.2 0 0 0 23.6 47.1 A 6.5 6.5 0 0 1 24.8 50.5 A 1.4 1.4 0 0 1 24.3 51.4 A 0.7 0.7 0 0 1 24.2 51.4 A 1.4 1.4 0 0 0 23.8 51.8 A 1 1 0 0 1 23.6 52 A 1.3 1.3 0 0 1 23.4 52.1 Q 23.2 52.1 22.9 52.3 A 0.4 0.4 0 0 1 22.9 52.4 A 0.7 0.7 0 0 1 22.4 52.5 A 1.9 1.9 0 0 1 20.9 51.5 A 8.1 8.1 0 0 1 19.7 50.1 A 3.9 3.9 0 0 1 19.3 49.2 Z M 120.8 46.1 L 120.2 46.4 A 1 1 0 0 0 119.8 46.7 A 10.7 10.7 0 0 1 115.7 49.5 Q 112.6 51 111.2 50.1 A 2.1 2.1 0 0 1 110.5 46.8 A 4.8 4.8 0 0 1 113.5 45.2 L 115.4 44.8 Q 116.6 44.6 117.1 44.4 L 117.6 44.2 A 3 3 0 0 0 118.2 43.8 L 119.4 43 A 3.7 3.7 0 0 1 120.3 42.6 A 1.8 1.8 0 0 1 121.8 42.7 A 1.3 1.3 0 0 1 122.2 44.7 A 3.8 3.8 0 0 1 120.8 46.1 Z M 133.4 50.8 L 134.1 50.6 L 134.7 50.9 A 2.8 2.8 0 0 1 135 51.1 A 1.1 1.1 0 0 1 135.6 52.4 A 6.5 6.5 0 0 0 135.6 54.8 L 136.1 57.1 A 0.6 0.6 0 0 1 136.2 57.4 A 10.3 10.3 0 0 1 136.7 59.8 A 3.8 3.8 0 0 1 136.2 62.1 Q 134.9 64.2 133 63.1 A 5.3 5.3 0 0 1 131.5 58.5 A 22.8 22.8 0 0 1 131.6 57.4 A 13.4 13.4 0 0 1 132.8 51.2 A 1.2 1.2 0 0 1 133.4 50.8 Z M 123.4 38.1 Q 123 38.7 120.9 38.2 Q 119.1 37.9 118.3 37.3 A 3.6 3.6 0 0 1 117.1 35.8 A 1.9 1.9 0 0 1 116.8 34 A 2.2 2.2 0 0 1 118.8 33.2 A 4.1 4.1 0 0 1 121.1 33.7 A 6.2 6.2 0 0 1 123 35.6 Q 124 37.1 123.4 38.1 Z"
            ></path>
          </g>
          <!---->
          <!---->
          <!---->
          <!---->
          <!---->
          <!---->
          <!---->
        </g>
      </g>
      <g
        fill-rule=""
        hollow-target="custom"
        class="tp-slogan"
        fill="#122620"
        transform="translate(3.96484375,74.61203002929688)"
      >
        <!---->
        <!---->
        <g mask="url(#598e03bf-fa51-44dd-9220-fb271f6e8118)">
          <g>
            <rect
              stroke-width="2"
              class="i-icon-bg"
              x="0"
              y="0"
              width="147.75999450683594"
              height="12.950000762939453"
              fill-opacity="1"
            ></rect>
            <!---->
            <!---->
          </g>
          <g transform="translate(5,2)">
            <g>
              <path
                d="M8.06-6.05L8.06-6.05L6.94-6.05Q6.52-7.78 4.55-7.83L4.55-7.83Q1.83-7.69 1.73-4.36L1.73-4.36Q1.73-0.80 4.59-0.80L4.59-0.80Q6.56-0.84 7.03-3.19L7.03-3.19L8.16-3.19Q7.64 0.05 4.36 0.14L4.36 0.14Q0.61 0 0.52-4.31L0.52-4.31Q0.70-8.63 4.55-8.81L4.55-8.81Q7.59-8.72 8.06-6.05ZM16.43-4.27L16.43-4.27Q16.24-7.64 13.43-7.83L13.43-7.83Q10.57-7.69 10.43-4.27L10.43-4.27Q10.57-0.94 13.43-0.80L13.43-0.80Q16.24-0.98 16.43-4.27ZM17.60-4.27L17.60-4.27Q17.32 0 13.43 0.14L13.43 0.14Q9.49 0 9.21-4.27L9.21-4.27Q9.45-8.72 13.43-8.81L13.43-8.81Q17.32-8.67 17.60-4.27ZM22.60 0L19.13 0L19.13-8.58L22.64-8.58Q26.11-8.39 26.25-4.41L26.25-4.41Q26.07-0.09 22.60 0L22.60 0ZM22.46-7.64L20.30-7.64L20.30-0.98L22.55-0.98Q24.99-1.13 25.08-4.31L25.08-4.31Q25.03-7.55 22.46-7.64L22.46-7.64ZM29.14-1.03L34.29-1.03L34.29 0L27.96 0L27.96-8.58L34.20-8.58L34.20-7.59L29.14-7.59L29.14-4.92L33.82-4.92L33.82-3.89L29.14-3.89L29.14-1.03ZM45.64-6.09L45.64-6.09L44.56-6.09Q44.47-7.73 42.40-7.83L42.40-7.83Q40.48-7.78 40.48-6.33L40.48-6.33Q40.48-5.39 41.51-5.25L41.51-5.25L43.95-4.69Q45.87-4.22 45.87-2.34L45.87-2.34Q45.83 0.05 42.50 0.14L42.50 0.14Q40.67 0.14 39.92-0.61L39.92-0.61Q38.98-1.31 39.03-2.77L39.03-2.77L40.15-2.77Q40.20-0.80 42.50-0.75L42.50-0.75Q44.75-0.80 44.80-2.20L44.80-2.20Q44.98-3.38 42.92-3.75L42.92-3.75L41.14-4.13Q39.31-4.64 39.31-6.19L39.31-6.19Q39.45-8.72 42.31-8.81L42.31-8.81Q45.55-8.81 45.64-6.09ZM55.70-8.58L55.70 0L54.57 0L54.57-5.06Q54.57-5.77 54.57-7.22L54.57-7.22L52.13 0L50.96 0L48.57-7.22L48.52-7.22Q48.52-6.70 48.57-5.67L48.57-5.67Q48.57-5.16 48.57-5.06L48.57-5.06L48.57 0L47.40 0L47.40-8.58L49.09-8.58L51.57-1.31L54.01-8.58L55.70-8.58ZM63.17 0L62.33-2.48L58.86-2.48L57.97 0L56.80 0L60.03-8.58L61.35-8.58L64.44 0L63.17 0ZM60.60-7.31L59.24-3.52L61.91-3.52L60.64-7.31L60.60-7.31ZM65.59-8.58L66.76-8.58L66.76-1.03L71.12-1.03L71.12 0L65.59 0L65.59-8.58ZM72.36-8.58L73.54-8.58L73.54-1.03L77.89-1.03L77.89 0L72.36 0L72.36-8.58ZM88.87-6.09L88.87-6.09L87.79-6.09Q87.69-7.73 85.63-7.83L85.63-7.83Q83.71-7.78 83.71-6.33L83.71-6.33Q83.71-5.39 84.74-5.25L84.74-5.25L87.18-4.69Q89.10-4.22 89.10-2.34L89.10-2.34Q89.05 0.05 85.73 0.14L85.73 0.14Q83.90 0.14 83.15-0.61L83.15-0.61Q82.21-1.31 82.26-2.77L82.26-2.77L83.38-2.77Q83.43-0.80 85.73-0.75L85.73-0.75Q87.98-0.80 88.02-2.20L88.02-2.20Q88.21-3.38 86.15-3.75L86.15-3.75L84.37-4.13Q82.54-4.64 82.54-6.19L82.54-6.19Q82.68-8.72 85.54-8.81L85.54-8.81Q88.77-8.81 88.87-6.09ZM96.34-3.19L96.34-8.58L97.52-8.58L97.52-3.05Q97.37 0.05 94.00 0.14L94.00 0.14Q90.86 0.05 90.72-2.86L90.72-2.86L90.72-8.58L91.89-8.58L91.89-3.19Q91.94-0.84 94.05-0.80L94.05-0.80Q96.34-0.84 96.34-3.19L96.34-3.19ZM103.54-3.70L100.73-3.70L100.73 0L99.56 0L99.56-8.58L103.54-8.58Q106.40-8.58 106.40-6.28L106.40-6.28Q106.40-4.88 105.18-4.22L105.18-4.22Q106.21-3.94 106.21-2.58L106.21-2.58L106.31-1.03Q106.26-0.38 106.73-0.19L106.73-0.19L106.73 0L105.27 0Q105.13-0.61 105.09-2.16L105.09-2.16Q105.13-3.70 103.54-3.70L103.54-3.70ZM103.63-7.64L100.73-7.64L100.73-4.69L103.45-4.69Q105.18-4.69 105.18-6.19L105.18-6.19Q105.18-7.64 103.63-7.64L103.63-7.64ZM111.82-7.64L109.47-7.64L109.47-4.64L111.77-4.64Q113.55-4.64 113.55-6.19L113.55-6.19Q113.55-7.59 111.82-7.64L111.82-7.64ZM112.19-3.61L109.47-3.61L109.47 0L108.30 0L108.30-8.58L112.19-8.58Q114.63-8.48 114.72-6.19L114.72-6.19Q114.58-3.70 112.19-3.61L112.19-3.61ZM116.25-8.58L117.42-8.58L117.42-1.03L121.78-1.03L121.78 0L116.25 0L116.25-8.58ZM128.69-3.19L128.69-8.58L129.86-8.58L129.86-3.05Q129.72 0.05 126.35 0.14L126.35 0.14Q123.21 0.05 123.07-2.86L123.07-2.86L123.07-8.58L124.24-8.58L124.24-3.19Q124.29-0.84 126.40-0.80L126.40-0.80Q128.69-0.84 128.69-3.19L128.69-3.19ZM138.05-6.09L138.05-6.09L136.97-6.09Q136.87-7.73 134.81-7.83L134.81-7.83Q132.89-7.78 132.89-6.33L132.89-6.33Q132.89-5.39 133.92-5.25L133.92-5.25L136.36-4.69Q138.28-4.22 138.28-2.34L138.28-2.34Q138.23 0.05 134.90 0.14L134.90 0.14Q133.08 0.14 132.33-0.61L132.33-0.61Q131.39-1.31 131.44-2.77L131.44-2.77L132.56-2.77Q132.61-0.80 134.90-0.75L134.90-0.75Q137.15-0.80 137.20-2.20L137.20-2.20Q137.39-3.38 135.33-3.75L135.33-3.75L133.55-4.13Q131.72-4.64 131.72-6.19L131.72-6.19Q131.86-8.72 134.72-8.81L134.72-8.81Q137.95-8.81 138.05-6.09Z"
                transform="translate(-0.515625, 8.8125)"
              ></path>
            </g>
          </g>
        </g>
      </g>
    </g>
    <!---->
  </g>
  <mask id="2bda311c-b594-4777-909c-42c9aeb93301">
    <g
      fill-rule="evenodd"
      fill="#fff"
      stroke="#fff"
      stroke-linejoin="round"
      stroke-width="16"
    >
      <g>
        <path
          d="M 18.8 26.5 A 8.2 8.2 0 0 0 19.4 27.7 A 6.6 6.6 0 0 0 21 29.4 Q 21.9 30.2 22.3 31.4 A 7.6 7.6 0 0 0 22.9 32.7 A 2.4 2.4 0 0 0 23 32.9 A 3.8 3.8 0 0 1 23.2 33.1 A 4.9 4.9 0 0 1 23.7 34.2 A 7 7 0 0 0 24.4 35.7 A 3.5 3.5 0 0 0 24.8 36.2 A 7.5 7.5 0 0 1 25.3 37 A 10.5 10.5 0 0 1 25.8 37.9 A 14.9 14.9 0 0 0 26.2 38.6 A 17.3 17.3 0 0 0 27.1 39.8 A 3 3 0 0 1 27.5 40.3 A 4.7 4.7 0 0 1 28 41.6 A 3.5 3.5 0 0 0 28.4 42.3 A 5 5 0 0 0 29.9 43.8 Q 31.3 44.7 32.9 44.2 A 2.1 2.1 0 0 0 33.4 44 A 2.4 2.4 0 0 0 34.2 43 A 1.1 1.1 0 0 1 34.7 42.4 A 2.3 2.3 0 0 1 35.3 42.1 A 3.5 3.5 0 0 0 36 41.8 A 2.8 2.8 0 0 0 36.8 41.1 A 3.1 3.1 0 0 1 37.6 40.3 A 3.5 3.5 0 0 1 38.2 40 A 2.9 2.9 0 0 0 38.7 39.8 A 3.8 3.8 0 0 0 40 38.2 A 5.5 5.5 0 0 1 41.9 36.4 A 19.3 19.3 0 0 1 43.6 35.5 Q 46.9 33.9 48.5 34.7 A 3.3 3.3 0 0 1 50.2 35.9 A 2.2 2.2 0 0 1 50.3 36.1 A 2.8 2.8 0 0 0 50.4 36.3 A 7.7 7.7 0 0 0 51.4 37.5 A 7.8 7.8 0 0 1 52.9 39.2 A 3.9 3.9 0 0 1 53.5 40.9 A 12.3 12.3 0 0 1 53.4 43.9 A 3.2 3.2 0 0 0 53 45.3 A 2.4 2.4 0 0 1 52.4 46.8 Q 52.3 47.1 52 47.2 A 1.9 1.9 0 0 0 51.7 47.4 A 1.5 1.5 0 0 0 51.5 47.5 A 0.4 0.4 0 0 1 51.4 47.7 A 4.4 4.4 0 0 1 49.7 48 Q 48.5 47.8 47.5 48 A 1.3 1.3 0 0 0 47.4 48.1 A 2.4 2.4 0 0 0 46.5 49.5 A 1.1 1.1 0 0 0 46.7 50.4 A 2.8 2.8 0 0 0 47.4 51.2 A 4.2 4.2 0 0 0 49.4 52.2 A 2.5 2.5 0 0 1 50.8 52.7 A 4.4 4.4 0 0 0 53.1 51.9 A 8.7 8.7 0 0 0 53.4 51.7 A 2.8 2.8 0 0 0 54.5 50.7 A 1.5 1.5 0 0 1 55.1 50.1 A 2.4 2.4 0 0 0 55.9 48.9 A 11.6 11.6 0 0 0 57.8 45.9 A 5.3 5.3 0 0 0 57.6 43.1 A 3.8 3.8 0 0 1 57.6 41.3 A 6 6 0 0 0 57 38.3 Q 56.4 36.7 55.5 35.9 A 5 5 0 0 1 54.5 34.7 A 2.2 2.2 0 0 1 54.3 34.4 A 13.7 13.7 0 0 0 53.7 33.3 A 2.6 2.6 0 0 0 52.4 32.1 A 5.2 5.2 0 0 1 51.1 31.2 A 182.4 182.4 0 0 0 48.7 30.5 A 7.3 7.3 0 0 0 44.3 30.9 A 7.4 7.4 0 0 0 42.3 31.7 A 3.1 3.1 0 0 0 41.7 32.2 A 11.2 11.2 0 0 1 39.4 34.1 A 10.4 10.4 0 0 1 38.6 34.6 A 6.8 6.8 0 0 0 38 34.9 A 9.4 9.4 0 0 0 35.9 36.8 A 9.5 9.5 0 0 1 33.8 38.3 Q 32.7 39.1 32.1 39.1 A 1.5 1.5 0 0 1 31.3 38.4 A 3.4 3.4 0 0 1 31.2 38.2 A 42.4 42.4 0 0 0 30.6 37.2 A 8.3 8.3 0 0 0 29.8 36.1 A 4.5 4.5 0 0 1 29.5 35.6 A 5.2 5.2 0 0 0 29 34.4 A 0.7 0.7 0 0 0 28.9 34.3 Q 28.5 33.9 28.4 33.5 A 4.8 4.8 0 0 0 28 32.7 A 11.1 11.1 0 0 0 27.1 31.5 A 2.3 2.3 0 0 1 26.7 31.1 A 4.6 4.6 0 0 1 26.2 29.9 A 6.8 6.8 0 0 0 25.7 28.9 A 2 2 0 0 0 25.6 28.6 A 2.4 2.4 0 0 1 25.2 28.2 A 3.5 3.5 0 0 1 24.8 27.4 A 5.1 5.1 0 0 0 24.6 26.9 A 25.7 25.7 0 0 0 23.7 25.6 A 4.6 4.6 0 0 0 21 23.6 A 2 2 0 0 0 19.6 23.9 A 2.7 2.7 0 0 0 19.1 24.3 Q 18.3 25.1 18.8 26.5 Z M 138.7 49.6 L 137.2 48.2 A 11.8 11.8 0 0 0 136.4 47.6 L 135.6 47.2 A 16.6 16.6 0 0 0 134.4 46.5 Q 133.7 46.1 133.2 45.9 Q 132.7 45.5 132.5 45.5 A 2.4 2.4 0 0 1 132 45.7 A 2.1 2.1 0 0 0 131.4 46 A 20.3 20.3 0 0 1 130.6 47.4 A 42.1 42.1 0 0 1 129.5 49.1 L 128.4 50.6 A 35.1 35.1 0 0 0 127.4 52.1 L 124.8 57.2 A 6.9 6.9 0 0 1 123 59.3 Q 121.7 60.3 120.4 59.5 A 1.9 1.9 0 0 1 119.6 57.2 A 6.9 6.9 0 0 1 120.1 55.8 L 120.7 54.7 A 23.5 23.5 0 0 1 121.9 53 A 11.8 11.8 0 0 1 122.5 52.1 L 123.9 50.3 A 11.8 11.8 0 0 0 124.5 49.5 Q 125.2 48.5 125.7 47.7 L 126.2 46.8 A 12.2 12.2 0 0 1 126.9 45.8 Q 127.6 44.7 128.2 44.1 A 2.6 2.6 0 0 0 128.1 43.3 L 128 42.4 A 6.6 6.6 0 0 1 126.9 41.9 A 9.1 9.1 0 0 1 125.4 40.7 A 2.1 2.1 0 0 1 124.3 38.1 A 1.3 1.3 0 0 1 124.3 38.1 A 2.4 2.4 0 0 1 127.2 37.8 A 10.4 10.4 0 0 1 129.3 38.7 A 6.7 6.7 0 0 1 129.8 39.1 A 4 4 0 0 0 131.8 37.8 A 7.8 7.8 0 0 0 132.4 37 L 133.1 35.8 A 1.8 1.8 0 0 0 133.3 35.4 L 133.5 34.8 A 0.3 0.3 0 0 0 133.6 34.6 A 2.5 2.5 0 0 1 133.8 34.1 L 133.7 33.4 L 131.6 32.1 A 6.7 6.7 0 0 1 131 31.6 A 4 4 0 0 1 130.2 30.8 A 1.4 1.4 0 0 1 129.7 29.2 A 1.4 1.4 0 0 1 130.2 28.8 L 130.7 28.5 Q 132.7 28.7 134.4 29.3 Q 136.8 30.1 139.3 31.6 A 12.6 12.6 0 0 1 142.4 34.2 A 2.7 2.7 0 0 1 143.4 37.1 A 1 1 0 0 1 142.3 37.4 Q 141.8 37.3 140.6 36.9 L 140.4 36.8 A 0.6 0.6 0 0 0 140.2 36.7 Q 139.9 36.6 139.7 36.5 Q 139.2 36.3 138.8 36.2 Q 137.8 35.9 137.2 36.2 L 136.5 37.3 L 136 37.8 L 135.5 38.8 L 134.9 40.3 A 7.8 7.8 0 0 0 135.2 41.8 L 139.1 44.2 L 140.8 45.1 A 13.6 13.6 0 0 1 142.2 45.9 A 7.1 7.1 0 0 1 142.8 46.3 A 2.4 2.4 0 0 1 143.9 49.8 Q 143.3 50.9 141.9 50.8 A 4.6 4.6 0 0 1 139.5 50.1 A 10 10 0 0 1 138.7 49.6 Z M 82.8 5.7 L 82.6 6.9 A 3.7 3.7 0 0 0 82.6 7.5 Q 82.5 8.1 82.5 8.6 Q 82.5 9.2 82.6 10.3 A 20.1 20.1 0 0 1 82.7 12.1 Q 82.7 12.9 82.5 13.9 L 81.8 17.3 Q 81.7 18.3 81.7 19.1 A 11.1 11.1 0 0 0 81.8 21 Q 81.9 21.6 82.1 22.8 L 82.4 24.6 A 18.1 18.1 0 0 1 82.6 26.5 Q 82.6 27.1 82.4 27.8 A 3.7 3.7 0 0 1 82.4 28.4 L 82.2 29.7 A 3.7 3.7 0 0 0 82.1 30.3 A 8.7 8.7 0 0 0 82 31.6 A 6 6 0 0 0 82.1 32.7 A 2.5 2.5 0 0 0 82.2 33.2 L 82.4 34.2 A 2.5 2.5 0 0 1 82.5 34.7 A 6 6 0 0 1 82.6 35.7 L 82.8 41 A 6.5 6.5 0 0 1 82.2 44 A 2.6 2.6 0 0 1 79.7 45.6 Q 78.4 45.6 77.6 44.5 A 4.3 4.3 0 0 1 77 42.1 A 19.9 19.9 0 0 1 77.3 39.1 A 18.8 18.8 0 0 0 77.6 36.2 A 9.9 9.9 0 0 0 77.5 34.7 A 8.9 8.9 0 0 1 77.3 33.3 A 29.6 29.6 0 0 1 77.5 30.3 Q 77.7 28.2 77.7 27.2 L 77.7 24.1 Q 77.8 22.3 78.1 21 L 78.4 19.9 A 6 6 0 0 0 78.5 18.8 A 3.7 3.7 0 0 0 78.5 18.2 L 78.3 17 A 3.7 3.7 0 0 1 78.2 16.4 A 13.7 13.7 0 0 0 77.8 13.7 A 12.2 12.2 0 0 1 77.4 11 A 32.1 32.1 0 0 0 77.3 9.2 L 77.2 5.7 A 32.1 32.1 0 0 1 77.1 3.9 Q 77.1 2.4 77.9 1.3 A 2.6 2.6 0 0 1 80.2 0 A 2.4 2.4 0 0 1 82.4 1.3 Q 83 2.3 83 4 A 6.5 6.5 0 0 1 82.9 5.1 A 3.7 3.7 0 0 1 82.8 5.7 Z M 24.6 17.4 A 1.6 1.6 0 0 0 24.4 17.6 A 1.8 1.8 0 0 1 24.1 17.8 A 4.6 4.6 0 0 1 23 18.3 A 4 4 0 0 0 21.9 18.7 A 4 4 0 0 0 21 19.5 A 3.4 3.4 0 0 1 20.4 20 A 0.6 0.6 0 0 1 20.3 20.1 A 2 2 0 0 0 19.8 20.3 A 2.9 2.9 0 0 0 19.5 20.5 A 4.9 4.9 0 0 1 18.1 22.1 A 4.3 4.3 0 0 1 17.9 22.2 A 1.6 1.6 0 0 1 16.8 22.5 A 4.3 4.3 0 0 0 15.8 22.4 Q 15.6 22.5 15.2 21.9 A 2 2 0 0 1 15.1 21.8 A 1.9 1.9 0 0 1 14.8 20.3 A 2.4 2.4 0 0 1 15.4 19.3 A 8.2 8.2 0 0 0 15.9 18.8 A 0.9 0.9 0 0 1 16.2 18.5 A 2.2 2.2 0 0 1 16.4 18.4 A 1 1 0 0 0 16.7 18.3 A 2.9 2.9 0 0 0 17.2 17.8 A 2 2 0 0 1 17.7 17.3 A 2 2 0 0 1 18.2 17.1 A 2.6 2.6 0 0 0 18.7 16.9 A 0.7 0.7 0 0 0 18.8 16.8 A 2.8 2.8 0 0 1 19.4 16.2 A 0.4 0.4 0 0 1 19.5 16.2 A 1.8 1.8 0 0 0 19.8 15.9 A 1.7 1.7 0 0 1 20.3 15.4 A 1.2 1.2 0 0 1 20.7 15.2 A 2.9 2.9 0 0 0 21.5 14.9 A 2.8 2.8 0 0 0 21.7 14.7 A 3.5 3.5 0 0 1 22.3 14.3 A 2.8 2.8 0 0 1 22.9 14 A 2.1 2.1 0 0 0 23.4 13.8 A 0.7 0.7 0 0 0 23.5 13.7 A 1.9 1.9 0 0 1 24.4 13.4 A 1.7 1.7 0 0 0 25.4 13.2 A 1.4 1.4 0 0 0 25.5 13.1 A 3.9 3.9 0 0 1 25.9 12.8 A 2 2 0 0 1 26.7 12.5 A 1.8 1.8 0 0 1 27.7 12.6 A 2.9 2.9 0 0 0 29 12.8 A 3.3 3.3 0 0 1 31.7 13.8 A 4.4 4.4 0 0 1 32.3 14.5 A 3.3 3.3 0 0 1 32.6 15.3 A 2.5 2.5 0 0 1 32.8 16.4 A 1.3 1.3 0 0 0 32.9 17.4 A 0.9 0.9 0 0 0 32.9 17.6 A 0.5 0.5 0 0 0 33 17.9 A 0.3 0.3 0 0 0 33 18 Q 33.2 18.2 33.2 18.4 A 7.1 7.1 0 0 0 33.7 19.6 A 1.1 1.1 0 0 1 34 20.3 A 0.5 0.5 0 0 0 34 20.5 A 1.2 1.2 0 0 0 34.2 20.7 Q 34.3 20.9 34.4 21.2 A 1 1 0 0 0 34.5 21.6 A 0.9 0.9 0 0 0 34.7 21.7 A 11.2 11.2 0 0 1 35.3 22.8 A 7.9 7.9 0 0 0 35.7 23.6 A 1.8 1.8 0 0 0 35.9 23.8 A 7.9 7.9 0 0 1 36.8 25 A 3.9 3.9 0 0 1 37 25.3 A 6.3 6.3 0 0 0 37.5 26 A 6.6 6.6 0 0 1 38.2 26.9 A 2.6 2.6 0 0 1 38.5 27.6 A 5.1 5.1 0 0 0 38.8 28.5 A 1.9 1.9 0 0 1 38.9 29.3 A 2.6 2.6 0 0 1 37.8 30.7 A 1.8 1.8 0 0 1 36.1 30.8 A 3 3 0 0 1 34.8 29.8 A 1.2 1.2 0 0 1 34.8 29.7 A 3.2 3.2 0 0 0 34.6 29.4 A 1.8 1.8 0 0 0 34.1 28.9 A 2.8 2.8 0 0 1 33.8 28.4 A 1.9 1.9 0 0 1 33.6 28.2 A 1.7 1.7 0 0 0 33.4 27.6 A 1.6 1.6 0 0 0 33.1 27.2 A 3.9 3.9 0 0 1 32.7 26.7 A 1.5 1.5 0 0 1 32.5 26.5 A 7.1 7.1 0 0 0 31.9 25.3 A 7.1 7.1 0 0 0 31.7 24.9 Q 31.5 24.8 31.5 24.6 Q 31.4 24.3 31.1 23.9 A 6.2 6.2 0 0 1 30.8 23.2 A 3.4 3.4 0 0 0 30.5 22.5 A 2.2 2.2 0 0 1 30.2 22.1 A 7.1 7.1 0 0 1 29.6 21 A 13.2 13.2 0 0 0 29 19.7 Q 28.8 19.2 28.6 18.9 A 3.6 3.6 0 0 0 28.2 18 Q 27.9 17.6 27.2 17.3 A 3.4 3.4 0 0 0 24.6 17.4 Z M 12.1 43.4 A 8.6 8.6 0 0 0 13.3 46.3 A 11.5 11.5 0 0 0 13.5 46.6 Q 14.4 48 14.6 48.4 A 2.1 2.1 0 0 0 14.9 49 A 1.1 1.1 0 0 0 15 49.2 A 11 11 0 0 1 15.8 50.3 A 3.3 3.3 0 0 1 16.2 51.2 A 5.2 5.2 0 0 0 16.9 52.6 A 1.2 1.2 0 0 1 17.2 52.9 A 2.9 2.9 0 0 1 17.5 53.5 A 4.2 4.2 0 0 0 17.6 53.8 A 8 8 0 0 0 18.4 54.9 Q 18.9 55.4 19.7 55.8 A 5.2 5.2 0 0 1 21 57 A 1.3 1.3 0 0 0 21 57.2 A 1.8 1.8 0 0 0 21.8 57.8 A 1.9 1.9 0 0 1 22.5 58.4 A 1.1 1.1 0 0 0 23.6 58.8 A 2.2 2.2 0 0 0 24.7 58.4 A 2.8 2.8 0 0 0 25.1 58.1 A 2.6 2.6 0 0 0 25.7 55.7 Q 25.6 55.3 26.1 54.9 A 3.9 3.9 0 0 0 26.4 54.5 A 1 1 0 0 1 26.6 54.4 A 1.9 1.9 0 0 1 26.9 54.2 A 2.8 2.8 0 0 0 28.3 53.9 A 1.3 1.3 0 0 0 28.7 53.5 A 3.8 3.8 0 0 0 29.5 51.7 A 1.8 1.8 0 0 0 29.3 50.4 A 1.7 1.7 0 0 0 28.9 49.9 A 1.2 1.2 0 0 1 28.3 49.5 A 0.6 0.6 0 0 1 28.3 49.3 Q 28 48.6 28.1 47.8 A 2.3 2.3 0 0 0 27.7 46.7 A 6.7 6.7 0 0 0 27.1 45.9 A 14 14 0 0 1 26.7 45.3 A 8.4 8.4 0 0 1 26.2 44.3 A 6.1 6.1 0 0 0 25.5 42.9 A 7.2 7.2 0 0 0 24.7 41.9 A 11.2 11.2 0 0 1 23.8 40.6 A 7.3 7.3 0 0 1 23.6 40.2 A 2.2 2.2 0 0 0 23.5 40.1 A 3.1 3.1 0 0 0 22.3 39 A 4.4 4.4 0 0 1 20.8 37.6 A 4 4 0 0 0 18.9 35.8 A 2.6 2.6 0 0 1 17.8 35.3 Q 17.3 34.9 16.4 35 A 0.7 0.7 0 0 0 15.8 35.1 A 1.4 1.4 0 0 0 15.5 35.4 A 1 1 0 0 1 15.2 35.7 A 0.3 0.3 0 0 1 15.1 35.8 A 0.5 0.5 0 0 0 15 35.8 A 0.3 0.3 0 0 0 14.9 35.9 Q 14.9 36 14.5 36.2 A 0.4 0.4 0 0 0 14.4 36.3 A 2.8 2.8 0 0 0 13.7 37.2 A 0.9 0.9 0 0 1 13.5 37.5 A 0.6 0.6 0 0 1 12.9 37.5 Q 12.4 37.4 11.9 37.3 A 2.1 2.1 0 0 0 10.8 37.6 A 3 3 0 0 0 10.6 37.8 A 1.5 1.5 0 0 0 10.1 39.1 A 23.9 23.9 0 0 0 10.5 40.4 A 3.9 3.9 0 0 0 10.6 40.7 A 3.6 3.6 0 0 0 11.2 41.4 A 1.9 1.9 0 0 1 11.3 41.5 A 8.3 8.3 0 0 1 12.1 43.4 Z M 9.8 48.9 A 10.5 10.5 0 0 0 9.2 47.9 Q 8.4 46.7 8.5 45.9 A 1.7 1.7 0 0 1 8.8 44.9 A 1.5 1.5 0 0 1 10.8 45.2 A 6.4 6.4 0 0 1 12.4 47.1 A 23.5 23.5 0 0 1 13.8 49.7 A 5.9 5.9 0 0 0 14.3 50.7 A 4.1 4.1 0 0 0 14.5 51 A 5.5 5.5 0 0 1 14.9 52.6 A 4.5 4.5 0 0 0 15.8 54.7 A 9.8 9.8 0 0 1 17.2 58.5 A 7.2 7.2 0 0 0 17.7 60.6 A 11.8 11.8 0 0 1 18.9 64 Q 18.6 64.5 18.9 65.2 Q 19.1 65.9 18.3 66.8 A 3.3 3.3 0 0 1 17.6 67.5 A 1 1 0 0 1 17.1 67.6 Q 16.1 67.7 15.1 66.9 A 1.8 1.8 0 0 1 14.5 66.3 A 4.8 4.8 0 0 1 14 65.2 Q 14 64.1 13.9 63.5 A 3.8 3.8 0 0 0 13.8 62 A 1.7 1.7 0 0 1 13.6 61 A 12.3 12.3 0 0 0 12.8 56.8 A 7.8 7.8 0 0 1 12.2 54.5 A 8.4 8.4 0 0 0 11.4 51.7 A 28.8 28.8 0 0 0 9.8 48.9 Z M 11.5 29.9 A 4.3 4.3 0 0 0 12.4 29.5 A 3.9 3.9 0 0 0 13.6 28.4 A 2 2 0 0 0 13.9 26.5 A 3.4 3.4 0 0 0 13.6 26.1 A 1.9 1.9 0 0 0 12.4 25.2 A 4.1 4.1 0 0 0 10.9 25.5 A 2.6 2.6 0 0 0 10.2 25.8 A 1.7 1.7 0 0 0 9.8 26.1 A 9.9 9.9 0 0 1 8.4 27.3 A 0.8 0.8 0 0 0 8.3 27.4 A 2 2 0 0 0 7.8 27.8 A 1.1 1.1 0 0 1 7.5 28.1 A 0.6 0.6 0 0 1 7.3 28.2 A 12.2 12.2 0 0 0 5.8 28.9 A 7.5 7.5 0 0 0 4.7 30 Q 4.5 30.3 4 30.6 A 3.5 3.5 0 0 0 3.8 30.7 A 2.8 2.8 0 0 0 2.9 31.6 A 1.1 1.1 0 0 1 2.5 32 A 2.6 2.6 0 0 1 2.3 32.1 A 6.4 6.4 0 0 0 0.5 34 A 3.4 3.4 0 0 0 0 36.2 A 3.8 3.8 0 0 0 0.5 37.5 A 2.2 2.2 0 0 0 1 38 A 0.4 0.4 0 0 0 1.1 38.2 Q 1.8 38.9 2.2 39.4 A 1.9 1.9 0 0 0 2.3 39.7 A 1 1 0 0 0 2.4 39.9 A 2.7 2.7 0 0 1 3.1 40.6 A 5.7 5.7 0 0 0 3.9 41.5 A 2.8 2.8 0 0 1 5.3 42.6 Q 5.9 43.3 6.8 43.4 A 1.2 1.2 0 0 0 7.4 43.2 A 1.1 1.1 0 0 0 7.8 42.7 Q 8.1 41.9 7.7 40.8 A 9.4 9.4 0 0 0 7.4 40.4 A 4.5 4.5 0 0 0 6.7 39.5 A 3.4 3.4 0 0 1 6.4 39.2 A 2.8 2.8 0 0 1 6.2 38.8 A 5.3 5.3 0 0 0 5.8 37.7 A 3.1 3.1 0 0 1 5.5 37.3 A 6.1 6.1 0 0 1 5.3 36.8 A 0.1 0.1 0 0 1 5.3 36.7 A 3.6 3.6 0 0 0 5.9 35.4 Q 6 34.9 6.4 34.5 A 2.3 2.3 0 0 0 7.1 33.6 A 3 3 0 0 1 8.4 32.2 A 6.1 6.1 0 0 1 8.6 32.1 A 10.1 10.1 0 0 0 9.1 31.8 A 6.1 6.1 0 0 0 9.9 31.2 A 4.8 4.8 0 0 1 11 30.2 A 5 5 0 0 1 11.5 29.9 Z M 118.2 22.2 L 119.5 22.2 A 11.6 11.6 0 0 0 120.8 22.2 Q 124 22.2 125.4 21.5 A 17 17 0 0 1 128.6 20.4 L 131.9 19.6 A 1.9 1.9 0 0 1 132.5 19.5 A 1.1 1.1 0 0 1 133.1 19.6 A 1.2 1.2 0 0 1 133.5 21.5 A 8.3 8.3 0 0 1 130 24 Q 127.4 25.2 124 26.1 A 37.2 37.2 0 0 1 117.6 27.2 A 7.3 7.3 0 0 1 113.6 26.8 A 2.1 2.1 0 0 1 112.4 23.6 Q 113.8 21.3 116 22.2 A 24.8 24.8 0 0 1 118.2 22.2 Z M 67.5 19.3 L 67.1 19.9 A 1.3 1.3 0 0 0 66.9 20.5 Q 66.5 23.6 65.4 26.1 Q 64.2 28.9 62 30.6 Q 61.5 31 61 31.6 Q 61 31.8 60.8 32 L 60.7 32.1 A 0.2 0.2 0 0 0 60.7 32.2 Q 60.6 32.2 60.6 32.2 A 2.7 2.7 0 0 1 60.2 32.8 Q 59.3 34.1 57.8 34.1 A 2.6 2.6 0 0 1 54.8 31.1 A 2.6 2.6 0 0 1 55 30.3 Q 55.1 30 55.2 29.8 A 0.2 0.2 0 0 1 55.3 29.7 L 55.5 29.4 Q 55.6 29.1 55.7 28.8 Q 55.9 28.4 56.8 27.4 Q 57.2 27 57.7 26.4 L 60.5 23.5 A 4.6 4.6 0 0 0 61.4 22.4 A 2.7 2.7 0 0 1 62.5 20.9 A 5.5 5.5 0 0 0 63.7 18.5 Q 64.3 16.6 65.1 15.9 A 3.4 3.4 0 0 1 65.8 15.5 Q 66.1 15.4 66.5 15.4 A 1.4 1.4 0 0 1 68 17.1 Q 68 18.3 67.5 19.3 Z M 34.5 49.4 A 6.5 6.5 0 0 0 32.6 51.4 A 4 4 0 0 0 32.1 53.7 A 4.4 4.4 0 0 0 32.6 55.1 A 2.3 2.3 0 0 0 33.1 55.6 A 2.7 2.7 0 0 0 35.3 56.1 A 3.6 3.6 0 0 0 36.2 55.6 A 5.6 5.6 0 0 0 37.7 54.2 Q 38.4 53.1 38.5 52.4 A 2.3 2.3 0 0 1 39.2 51.3 A 3 3 0 0 0 40.1 49.9 A 4.4 4.4 0 0 1 41.9 48 A 7.9 7.9 0 0 1 42.1 47.9 A 7.9 7.9 0 0 0 43 47.4 A 5.1 5.1 0 0 0 43.9 46.7 A 5.9 5.9 0 0 1 45.4 45.3 A 5 5 0 0 1 46.1 45 A 6 6 0 0 0 46.9 44.5 A 4.3 4.3 0 0 0 48.1 43.4 A 1.9 1.9 0 0 0 48.5 41.5 A 3.4 3.4 0 0 0 48.2 41.1 A 1.7 1.7 0 0 0 47.1 40.3 Q 46.2 40.2 45.5 40.5 A 2.7 2.7 0 0 0 44.8 40.8 A 2 2 0 0 0 44.4 41.1 A 8.8 8.8 0 0 1 43 42.3 A 2.7 2.7 0 0 0 42.2 43.1 A 1.8 1.8 0 0 1 41.8 43.6 A 0.8 0.8 0 0 1 41.5 43.7 A 12 12 0 0 0 39.6 44.6 A 3.4 3.4 0 0 0 39.4 44.7 Q 38.6 45.3 37.9 46.2 A 4.4 4.4 0 0 1 36.9 47.2 A 5.3 5.3 0 0 0 36.7 47.3 A 3.9 3.9 0 0 0 35.4 48.6 A 1.6 1.6 0 0 1 34.8 49.2 A 5.3 5.3 0 0 1 34.5 49.4 Z M 99.8 32.2 L 98.8 30.7 A 9.7 9.7 0 0 0 97.7 29.4 A 20.3 20.3 0 0 1 95.3 26.8 A 6.6 6.6 0 0 1 94.4 25 L 94 23.3 A 11.7 11.7 0 0 0 92.9 21 A 16.8 16.8 0 0 1 92.1 19.2 Q 91.6 17.9 91.6 17.2 Q 91.6 16.4 92.5 15.9 L 92.6 15.9 A 0.2 0.2 0 0 1 92.8 15.8 L 93.1 15.8 A 2 2 0 0 1 95 16.7 A 4.9 4.9 0 0 1 95.4 17.6 L 95.7 18.5 Q 96.1 19.5 96.8 20.1 A 12.3 12.3 0 0 0 98.2 21.3 A 6.7 6.7 0 0 0 98.9 21.9 L 99.6 22.5 A 3.9 3.9 0 0 1 100.5 23.4 A 3.6 3.6 0 0 1 100.9 24 L 101.7 25.7 Q 102.1 26.3 102.6 26.6 Q 103.9 27.6 104.5 28.4 A 3.9 3.9 0 0 1 105.4 30.7 A 2.7 2.7 0 0 1 102.5 33.9 A 3.4 3.4 0 0 1 99.8 32.2 Z M 151.5 48.6 A 2.4 2.4 0 0 0 155.2 47.9 A 3.5 3.5 0 0 0 154.7 43.8 Q 152.9 41.3 151.3 37.1 Q 150 33.4 149.3 29.8 A 3.2 3.2 0 0 0 149.1 29.3 Q 148.9 29 148.7 28.8 Q 147.5 28.1 146.7 29.4 Q 146 30.5 146.2 33.4 A 31 31 0 0 0 147.2 39.4 A 33.2 33.2 0 0 0 149.1 45.2 A 7.7 7.7 0 0 0 151.5 48.6 Z M 146.2 26 L 145.8 24.8 Q 145.5 24 145 23.4 A 9.3 9.3 0 0 0 142.9 21.7 A 7.8 7.8 0 0 0 140.4 20.7 A 9.8 9.8 0 0 0 138.3 20.6 L 137.1 20.8 A 0.6 0.6 0 0 0 136.8 20.9 A 1.6 1.6 0 0 1 135.8 20.8 Q 135.3 20.5 135.2 19.7 Q 135.1 18.8 135.4 18.3 Q 137.2 15.5 140.5 15.8 A 12.9 12.9 0 0 1 146.1 17.9 Q 148.1 19.1 149.1 21.7 A 5.1 5.1 0 0 1 149.1 26.4 A 1.4 1.4 0 0 1 146.9 26.8 A 1.8 1.8 0 0 1 146.2 26 Z M 19.3 49.2 A 5.1 5.1 0 0 0 18.9 48.3 A 5.6 5.6 0 0 0 18.4 47.8 A 3.5 3.5 0 0 1 17.9 47.1 A 2.6 2.6 0 0 1 17.6 46.4 A 3.6 3.6 0 0 0 17.2 45.7 A 6.8 6.8 0 0 0 17 45.3 Q 16.6 44.7 16.4 44 A 1.3 1.3 0 0 0 16.2 43.5 A 2.2 2.2 0 0 0 15.9 43.1 A 1.1 1.1 0 0 1 15.7 42.9 A 3.7 3.7 0 0 1 15.3 41.2 A 0.8 0.8 0 0 1 15.3 40 A 0.5 0.5 0 0 1 15.3 40 A 1.2 1.2 0 0 0 15.7 39.5 A 0.4 0.4 0 0 1 15.8 39.3 A 0.4 0.4 0 0 1 15.9 39.2 A 1.2 1.2 0 0 0 16.2 39 A 1 1 0 0 1 16.4 38.8 A 1 1 0 0 1 17.5 38.9 A 5.6 5.6 0 0 1 18.4 40 A 5 5 0 0 1 18.5 40.3 Q 19.1 41.1 20 41.7 A 4.7 4.7 0 0 1 21.2 43 A 6 6 0 0 0 21.4 43.3 A 4.5 4.5 0 0 0 22.1 44.2 A 1.9 1.9 0 0 1 22.5 44.6 A 1.9 1.9 0 0 1 22.7 45.1 A 6.2 6.2 0 0 0 23.6 47.1 A 6.5 6.5 0 0 1 24.8 50.5 A 1.4 1.4 0 0 1 24.3 51.4 A 0.7 0.7 0 0 1 24.2 51.4 A 1.4 1.4 0 0 0 23.8 51.8 A 1 1 0 0 1 23.6 52 A 1.3 1.3 0 0 1 23.4 52.1 Q 23.2 52.1 22.9 52.3 A 0.4 0.4 0 0 1 22.9 52.4 A 0.7 0.7 0 0 1 22.4 52.5 A 1.9 1.9 0 0 1 20.9 51.5 A 8.1 8.1 0 0 1 19.7 50.1 A 3.9 3.9 0 0 1 19.3 49.2 Z M 120.8 46.1 L 120.2 46.4 A 1 1 0 0 0 119.8 46.7 A 10.7 10.7 0 0 1 115.7 49.5 Q 112.6 51 111.2 50.1 A 2.1 2.1 0 0 1 110.5 46.8 A 4.8 4.8 0 0 1 113.5 45.2 L 115.4 44.8 Q 116.6 44.6 117.1 44.4 L 117.6 44.2 A 3 3 0 0 0 118.2 43.8 L 119.4 43 A 3.7 3.7 0 0 1 120.3 42.6 A 1.8 1.8 0 0 1 121.8 42.7 A 1.3 1.3 0 0 1 122.2 44.7 A 3.8 3.8 0 0 1 120.8 46.1 Z M 133.4 50.8 L 134.1 50.6 L 134.7 50.9 A 2.8 2.8 0 0 1 135 51.1 A 1.1 1.1 0 0 1 135.6 52.4 A 6.5 6.5 0 0 0 135.6 54.8 L 136.1 57.1 A 0.6 0.6 0 0 1 136.2 57.4 A 10.3 10.3 0 0 1 136.7 59.8 A 3.8 3.8 0 0 1 136.2 62.1 Q 134.9 64.2 133 63.1 A 5.3 5.3 0 0 1 131.5 58.5 A 22.8 22.8 0 0 1 131.6 57.4 A 13.4 13.4 0 0 1 132.8 51.2 A 1.2 1.2 0 0 1 133.4 50.8 Z M 123.4 38.1 Q 123 38.7 120.9 38.2 Q 119.1 37.9 118.3 37.3 A 3.6 3.6 0 0 1 117.1 35.8 A 1.9 1.9 0 0 1 116.8 34 A 2.2 2.2 0 0 1 118.8 33.2 A 4.1 4.1 0 0 1 121.1 33.7 A 6.2 6.2 0 0 1 123 35.6 Q 124 37.1 123.4 38.1 Z"
        ></path>
      </g>
      <!---->
      <!---->
      <!---->
      <!---->
      <!---->
      <!---->
      <!---->
    </g>
    <g
      fill-rule="evenodd"
      class="tp-name"
      fill="#d6ad60"
      stroke="#000"
      stroke-width="3"
    >
      <g>
        <path
          d="M 18.8 26.5 A 8.2 8.2 0 0 0 19.4 27.7 A 6.6 6.6 0 0 0 21 29.4 Q 21.9 30.2 22.3 31.4 A 7.6 7.6 0 0 0 22.9 32.7 A 2.4 2.4 0 0 0 23 32.9 A 3.8 3.8 0 0 1 23.2 33.1 A 4.9 4.9 0 0 1 23.7 34.2 A 7 7 0 0 0 24.4 35.7 A 3.5 3.5 0 0 0 24.8 36.2 A 7.5 7.5 0 0 1 25.3 37 A 10.5 10.5 0 0 1 25.8 37.9 A 14.9 14.9 0 0 0 26.2 38.6 A 17.3 17.3 0 0 0 27.1 39.8 A 3 3 0 0 1 27.5 40.3 A 4.7 4.7 0 0 1 28 41.6 A 3.5 3.5 0 0 0 28.4 42.3 A 5 5 0 0 0 29.9 43.8 Q 31.3 44.7 32.9 44.2 A 2.1 2.1 0 0 0 33.4 44 A 2.4 2.4 0 0 0 34.2 43 A 1.1 1.1 0 0 1 34.7 42.4 A 2.3 2.3 0 0 1 35.3 42.1 A 3.5 3.5 0 0 0 36 41.8 A 2.8 2.8 0 0 0 36.8 41.1 A 3.1 3.1 0 0 1 37.6 40.3 A 3.5 3.5 0 0 1 38.2 40 A 2.9 2.9 0 0 0 38.7 39.8 A 3.8 3.8 0 0 0 40 38.2 A 5.5 5.5 0 0 1 41.9 36.4 A 19.3 19.3 0 0 1 43.6 35.5 Q 46.9 33.9 48.5 34.7 A 3.3 3.3 0 0 1 50.2 35.9 A 2.2 2.2 0 0 1 50.3 36.1 A 2.8 2.8 0 0 0 50.4 36.3 A 7.7 7.7 0 0 0 51.4 37.5 A 7.8 7.8 0 0 1 52.9 39.2 A 3.9 3.9 0 0 1 53.5 40.9 A 12.3 12.3 0 0 1 53.4 43.9 A 3.2 3.2 0 0 0 53 45.3 A 2.4 2.4 0 0 1 52.4 46.8 Q 52.3 47.1 52 47.2 A 1.9 1.9 0 0 0 51.7 47.4 A 1.5 1.5 0 0 0 51.5 47.5 A 0.4 0.4 0 0 1 51.4 47.7 A 4.4 4.4 0 0 1 49.7 48 Q 48.5 47.8 47.5 48 A 1.3 1.3 0 0 0 47.4 48.1 A 2.4 2.4 0 0 0 46.5 49.5 A 1.1 1.1 0 0 0 46.7 50.4 A 2.8 2.8 0 0 0 47.4 51.2 A 4.2 4.2 0 0 0 49.4 52.2 A 2.5 2.5 0 0 1 50.8 52.7 A 4.4 4.4 0 0 0 53.1 51.9 A 8.7 8.7 0 0 0 53.4 51.7 A 2.8 2.8 0 0 0 54.5 50.7 A 1.5 1.5 0 0 1 55.1 50.1 A 2.4 2.4 0 0 0 55.9 48.9 A 11.6 11.6 0 0 0 57.8 45.9 A 5.3 5.3 0 0 0 57.6 43.1 A 3.8 3.8 0 0 1 57.6 41.3 A 6 6 0 0 0 57 38.3 Q 56.4 36.7 55.5 35.9 A 5 5 0 0 1 54.5 34.7 A 2.2 2.2 0 0 1 54.3 34.4 A 13.7 13.7 0 0 0 53.7 33.3 A 2.6 2.6 0 0 0 52.4 32.1 A 5.2 5.2 0 0 1 51.1 31.2 A 182.4 182.4 0 0 0 48.7 30.5 A 7.3 7.3 0 0 0 44.3 30.9 A 7.4 7.4 0 0 0 42.3 31.7 A 3.1 3.1 0 0 0 41.7 32.2 A 11.2 11.2 0 0 1 39.4 34.1 A 10.4 10.4 0 0 1 38.6 34.6 A 6.8 6.8 0 0 0 38 34.9 A 9.4 9.4 0 0 0 35.9 36.8 A 9.5 9.5 0 0 1 33.8 38.3 Q 32.7 39.1 32.1 39.1 A 1.5 1.5 0 0 1 31.3 38.4 A 3.4 3.4 0 0 1 31.2 38.2 A 42.4 42.4 0 0 0 30.6 37.2 A 8.3 8.3 0 0 0 29.8 36.1 A 4.5 4.5 0 0 1 29.5 35.6 A 5.2 5.2 0 0 0 29 34.4 A 0.7 0.7 0 0 0 28.9 34.3 Q 28.5 33.9 28.4 33.5 A 4.8 4.8 0 0 0 28 32.7 A 11.1 11.1 0 0 0 27.1 31.5 A 2.3 2.3 0 0 1 26.7 31.1 A 4.6 4.6 0 0 1 26.2 29.9 A 6.8 6.8 0 0 0 25.7 28.9 A 2 2 0 0 0 25.6 28.6 A 2.4 2.4 0 0 1 25.2 28.2 A 3.5 3.5 0 0 1 24.8 27.4 A 5.1 5.1 0 0 0 24.6 26.9 A 25.7 25.7 0 0 0 23.7 25.6 A 4.6 4.6 0 0 0 21 23.6 A 2 2 0 0 0 19.6 23.9 A 2.7 2.7 0 0 0 19.1 24.3 Q 18.3 25.1 18.8 26.5 Z M 138.7 49.6 L 137.2 48.2 A 11.8 11.8 0 0 0 136.4 47.6 L 135.6 47.2 A 16.6 16.6 0 0 0 134.4 46.5 Q 133.7 46.1 133.2 45.9 Q 132.7 45.5 132.5 45.5 A 2.4 2.4 0 0 1 132 45.7 A 2.1 2.1 0 0 0 131.4 46 A 20.3 20.3 0 0 1 130.6 47.4 A 42.1 42.1 0 0 1 129.5 49.1 L 128.4 50.6 A 35.1 35.1 0 0 0 127.4 52.1 L 124.8 57.2 A 6.9 6.9 0 0 1 123 59.3 Q 121.7 60.3 120.4 59.5 A 1.9 1.9 0 0 1 119.6 57.2 A 6.9 6.9 0 0 1 120.1 55.8 L 120.7 54.7 A 23.5 23.5 0 0 1 121.9 53 A 11.8 11.8 0 0 1 122.5 52.1 L 123.9 50.3 A 11.8 11.8 0 0 0 124.5 49.5 Q 125.2 48.5 125.7 47.7 L 126.2 46.8 A 12.2 12.2 0 0 1 126.9 45.8 Q 127.6 44.7 128.2 44.1 A 2.6 2.6 0 0 0 128.1 43.3 L 128 42.4 A 6.6 6.6 0 0 1 126.9 41.9 A 9.1 9.1 0 0 1 125.4 40.7 A 2.1 2.1 0 0 1 124.3 38.1 A 1.3 1.3 0 0 1 124.3 38.1 A 2.4 2.4 0 0 1 127.2 37.8 A 10.4 10.4 0 0 1 129.3 38.7 A 6.7 6.7 0 0 1 129.8 39.1 A 4 4 0 0 0 131.8 37.8 A 7.8 7.8 0 0 0 132.4 37 L 133.1 35.8 A 1.8 1.8 0 0 0 133.3 35.4 L 133.5 34.8 A 0.3 0.3 0 0 0 133.6 34.6 A 2.5 2.5 0 0 1 133.8 34.1 L 133.7 33.4 L 131.6 32.1 A 6.7 6.7 0 0 1 131 31.6 A 4 4 0 0 1 130.2 30.8 A 1.4 1.4 0 0 1 129.7 29.2 A 1.4 1.4 0 0 1 130.2 28.8 L 130.7 28.5 Q 132.7 28.7 134.4 29.3 Q 136.8 30.1 139.3 31.6 A 12.6 12.6 0 0 1 142.4 34.2 A 2.7 2.7 0 0 1 143.4 37.1 A 1 1 0 0 1 142.3 37.4 Q 141.8 37.3 140.6 36.9 L 140.4 36.8 A 0.6 0.6 0 0 0 140.2 36.7 Q 139.9 36.6 139.7 36.5 Q 139.2 36.3 138.8 36.2 Q 137.8 35.9 137.2 36.2 L 136.5 37.3 L 136 37.8 L 135.5 38.8 L 134.9 40.3 A 7.8 7.8 0 0 0 135.2 41.8 L 139.1 44.2 L 140.8 45.1 A 13.6 13.6 0 0 1 142.2 45.9 A 7.1 7.1 0 0 1 142.8 46.3 A 2.4 2.4 0 0 1 143.9 49.8 Q 143.3 50.9 141.9 50.8 A 4.6 4.6 0 0 1 139.5 50.1 A 10 10 0 0 1 138.7 49.6 Z M 82.8 5.7 L 82.6 6.9 A 3.7 3.7 0 0 0 82.6 7.5 Q 82.5 8.1 82.5 8.6 Q 82.5 9.2 82.6 10.3 A 20.1 20.1 0 0 1 82.7 12.1 Q 82.7 12.9 82.5 13.9 L 81.8 17.3 Q 81.7 18.3 81.7 19.1 A 11.1 11.1 0 0 0 81.8 21 Q 81.9 21.6 82.1 22.8 L 82.4 24.6 A 18.1 18.1 0 0 1 82.6 26.5 Q 82.6 27.1 82.4 27.8 A 3.7 3.7 0 0 1 82.4 28.4 L 82.2 29.7 A 3.7 3.7 0 0 0 82.1 30.3 A 8.7 8.7 0 0 0 82 31.6 A 6 6 0 0 0 82.1 32.7 A 2.5 2.5 0 0 0 82.2 33.2 L 82.4 34.2 A 2.5 2.5 0 0 1 82.5 34.7 A 6 6 0 0 1 82.6 35.7 L 82.8 41 A 6.5 6.5 0 0 1 82.2 44 A 2.6 2.6 0 0 1 79.7 45.6 Q 78.4 45.6 77.6 44.5 A 4.3 4.3 0 0 1 77 42.1 A 19.9 19.9 0 0 1 77.3 39.1 A 18.8 18.8 0 0 0 77.6 36.2 A 9.9 9.9 0 0 0 77.5 34.7 A 8.9 8.9 0 0 1 77.3 33.3 A 29.6 29.6 0 0 1 77.5 30.3 Q 77.7 28.2 77.7 27.2 L 77.7 24.1 Q 77.8 22.3 78.1 21 L 78.4 19.9 A 6 6 0 0 0 78.5 18.8 A 3.7 3.7 0 0 0 78.5 18.2 L 78.3 17 A 3.7 3.7 0 0 1 78.2 16.4 A 13.7 13.7 0 0 0 77.8 13.7 A 12.2 12.2 0 0 1 77.4 11 A 32.1 32.1 0 0 0 77.3 9.2 L 77.2 5.7 A 32.1 32.1 0 0 1 77.1 3.9 Q 77.1 2.4 77.9 1.3 A 2.6 2.6 0 0 1 80.2 0 A 2.4 2.4 0 0 1 82.4 1.3 Q 83 2.3 83 4 A 6.5 6.5 0 0 1 82.9 5.1 A 3.7 3.7 0 0 1 82.8 5.7 Z M 24.6 17.4 A 1.6 1.6 0 0 0 24.4 17.6 A 1.8 1.8 0 0 1 24.1 17.8 A 4.6 4.6 0 0 1 23 18.3 A 4 4 0 0 0 21.9 18.7 A 4 4 0 0 0 21 19.5 A 3.4 3.4 0 0 1 20.4 20 A 0.6 0.6 0 0 1 20.3 20.1 A 2 2 0 0 0 19.8 20.3 A 2.9 2.9 0 0 0 19.5 20.5 A 4.9 4.9 0 0 1 18.1 22.1 A 4.3 4.3 0 0 1 17.9 22.2 A 1.6 1.6 0 0 1 16.8 22.5 A 4.3 4.3 0 0 0 15.8 22.4 Q 15.6 22.5 15.2 21.9 A 2 2 0 0 1 15.1 21.8 A 1.9 1.9 0 0 1 14.8 20.3 A 2.4 2.4 0 0 1 15.4 19.3 A 8.2 8.2 0 0 0 15.9 18.8 A 0.9 0.9 0 0 1 16.2 18.5 A 2.2 2.2 0 0 1 16.4 18.4 A 1 1 0 0 0 16.7 18.3 A 2.9 2.9 0 0 0 17.2 17.8 A 2 2 0 0 1 17.7 17.3 A 2 2 0 0 1 18.2 17.1 A 2.6 2.6 0 0 0 18.7 16.9 A 0.7 0.7 0 0 0 18.8 16.8 A 2.8 2.8 0 0 1 19.4 16.2 A 0.4 0.4 0 0 1 19.5 16.2 A 1.8 1.8 0 0 0 19.8 15.9 A 1.7 1.7 0 0 1 20.3 15.4 A 1.2 1.2 0 0 1 20.7 15.2 A 2.9 2.9 0 0 0 21.5 14.9 A 2.8 2.8 0 0 0 21.7 14.7 A 3.5 3.5 0 0 1 22.3 14.3 A 2.8 2.8 0 0 1 22.9 14 A 2.1 2.1 0 0 0 23.4 13.8 A 0.7 0.7 0 0 0 23.5 13.7 A 1.9 1.9 0 0 1 24.4 13.4 A 1.7 1.7 0 0 0 25.4 13.2 A 1.4 1.4 0 0 0 25.5 13.1 A 3.9 3.9 0 0 1 25.9 12.8 A 2 2 0 0 1 26.7 12.5 A 1.8 1.8 0 0 1 27.7 12.6 A 2.9 2.9 0 0 0 29 12.8 A 3.3 3.3 0 0 1 31.7 13.8 A 4.4 4.4 0 0 1 32.3 14.5 A 3.3 3.3 0 0 1 32.6 15.3 A 2.5 2.5 0 0 1 32.8 16.4 A 1.3 1.3 0 0 0 32.9 17.4 A 0.9 0.9 0 0 0 32.9 17.6 A 0.5 0.5 0 0 0 33 17.9 A 0.3 0.3 0 0 0 33 18 Q 33.2 18.2 33.2 18.4 A 7.1 7.1 0 0 0 33.7 19.6 A 1.1 1.1 0 0 1 34 20.3 A 0.5 0.5 0 0 0 34 20.5 A 1.2 1.2 0 0 0 34.2 20.7 Q 34.3 20.9 34.4 21.2 A 1 1 0 0 0 34.5 21.6 A 0.9 0.9 0 0 0 34.7 21.7 A 11.2 11.2 0 0 1 35.3 22.8 A 7.9 7.9 0 0 0 35.7 23.6 A 1.8 1.8 0 0 0 35.9 23.8 A 7.9 7.9 0 0 1 36.8 25 A 3.9 3.9 0 0 1 37 25.3 A 6.3 6.3 0 0 0 37.5 26 A 6.6 6.6 0 0 1 38.2 26.9 A 2.6 2.6 0 0 1 38.5 27.6 A 5.1 5.1 0 0 0 38.8 28.5 A 1.9 1.9 0 0 1 38.9 29.3 A 2.6 2.6 0 0 1 37.8 30.7 A 1.8 1.8 0 0 1 36.1 30.8 A 3 3 0 0 1 34.8 29.8 A 1.2 1.2 0 0 1 34.8 29.7 A 3.2 3.2 0 0 0 34.6 29.4 A 1.8 1.8 0 0 0 34.1 28.9 A 2.8 2.8 0 0 1 33.8 28.4 A 1.9 1.9 0 0 1 33.6 28.2 A 1.7 1.7 0 0 0 33.4 27.6 A 1.6 1.6 0 0 0 33.1 27.2 A 3.9 3.9 0 0 1 32.7 26.7 A 1.5 1.5 0 0 1 32.5 26.5 A 7.1 7.1 0 0 0 31.9 25.3 A 7.1 7.1 0 0 0 31.7 24.9 Q 31.5 24.8 31.5 24.6 Q 31.4 24.3 31.1 23.9 A 6.2 6.2 0 0 1 30.8 23.2 A 3.4 3.4 0 0 0 30.5 22.5 A 2.2 2.2 0 0 1 30.2 22.1 A 7.1 7.1 0 0 1 29.6 21 A 13.2 13.2 0 0 0 29 19.7 Q 28.8 19.2 28.6 18.9 A 3.6 3.6 0 0 0 28.2 18 Q 27.9 17.6 27.2 17.3 A 3.4 3.4 0 0 0 24.6 17.4 Z M 12.1 43.4 A 8.6 8.6 0 0 0 13.3 46.3 A 11.5 11.5 0 0 0 13.5 46.6 Q 14.4 48 14.6 48.4 A 2.1 2.1 0 0 0 14.9 49 A 1.1 1.1 0 0 0 15 49.2 A 11 11 0 0 1 15.8 50.3 A 3.3 3.3 0 0 1 16.2 51.2 A 5.2 5.2 0 0 0 16.9 52.6 A 1.2 1.2 0 0 1 17.2 52.9 A 2.9 2.9 0 0 1 17.5 53.5 A 4.2 4.2 0 0 0 17.6 53.8 A 8 8 0 0 0 18.4 54.9 Q 18.9 55.4 19.7 55.8 A 5.2 5.2 0 0 1 21 57 A 1.3 1.3 0 0 0 21 57.2 A 1.8 1.8 0 0 0 21.8 57.8 A 1.9 1.9 0 0 1 22.5 58.4 A 1.1 1.1 0 0 0 23.6 58.8 A 2.2 2.2 0 0 0 24.7 58.4 A 2.8 2.8 0 0 0 25.1 58.1 A 2.6 2.6 0 0 0 25.7 55.7 Q 25.6 55.3 26.1 54.9 A 3.9 3.9 0 0 0 26.4 54.5 A 1 1 0 0 1 26.6 54.4 A 1.9 1.9 0 0 1 26.9 54.2 A 2.8 2.8 0 0 0 28.3 53.9 A 1.3 1.3 0 0 0 28.7 53.5 A 3.8 3.8 0 0 0 29.5 51.7 A 1.8 1.8 0 0 0 29.3 50.4 A 1.7 1.7 0 0 0 28.9 49.9 A 1.2 1.2 0 0 1 28.3 49.5 A 0.6 0.6 0 0 1 28.3 49.3 Q 28 48.6 28.1 47.8 A 2.3 2.3 0 0 0 27.7 46.7 A 6.7 6.7 0 0 0 27.1 45.9 A 14 14 0 0 1 26.7 45.3 A 8.4 8.4 0 0 1 26.2 44.3 A 6.1 6.1 0 0 0 25.5 42.9 A 7.2 7.2 0 0 0 24.7 41.9 A 11.2 11.2 0 0 1 23.8 40.6 A 7.3 7.3 0 0 1 23.6 40.2 A 2.2 2.2 0 0 0 23.5 40.1 A 3.1 3.1 0 0 0 22.3 39 A 4.4 4.4 0 0 1 20.8 37.6 A 4 4 0 0 0 18.9 35.8 A 2.6 2.6 0 0 1 17.8 35.3 Q 17.3 34.9 16.4 35 A 0.7 0.7 0 0 0 15.8 35.1 A 1.4 1.4 0 0 0 15.5 35.4 A 1 1 0 0 1 15.2 35.7 A 0.3 0.3 0 0 1 15.1 35.8 A 0.5 0.5 0 0 0 15 35.8 A 0.3 0.3 0 0 0 14.9 35.9 Q 14.9 36 14.5 36.2 A 0.4 0.4 0 0 0 14.4 36.3 A 2.8 2.8 0 0 0 13.7 37.2 A 0.9 0.9 0 0 1 13.5 37.5 A 0.6 0.6 0 0 1 12.9 37.5 Q 12.4 37.4 11.9 37.3 A 2.1 2.1 0 0 0 10.8 37.6 A 3 3 0 0 0 10.6 37.8 A 1.5 1.5 0 0 0 10.1 39.1 A 23.9 23.9 0 0 0 10.5 40.4 A 3.9 3.9 0 0 0 10.6 40.7 A 3.6 3.6 0 0 0 11.2 41.4 A 1.9 1.9 0 0 1 11.3 41.5 A 8.3 8.3 0 0 1 12.1 43.4 Z M 9.8 48.9 A 10.5 10.5 0 0 0 9.2 47.9 Q 8.4 46.7 8.5 45.9 A 1.7 1.7 0 0 1 8.8 44.9 A 1.5 1.5 0 0 1 10.8 45.2 A 6.4 6.4 0 0 1 12.4 47.1 A 23.5 23.5 0 0 1 13.8 49.7 A 5.9 5.9 0 0 0 14.3 50.7 A 4.1 4.1 0 0 0 14.5 51 A 5.5 5.5 0 0 1 14.9 52.6 A 4.5 4.5 0 0 0 15.8 54.7 A 9.8 9.8 0 0 1 17.2 58.5 A 7.2 7.2 0 0 0 17.7 60.6 A 11.8 11.8 0 0 1 18.9 64 Q 18.6 64.5 18.9 65.2 Q 19.1 65.9 18.3 66.8 A 3.3 3.3 0 0 1 17.6 67.5 A 1 1 0 0 1 17.1 67.6 Q 16.1 67.7 15.1 66.9 A 1.8 1.8 0 0 1 14.5 66.3 A 4.8 4.8 0 0 1 14 65.2 Q 14 64.1 13.9 63.5 A 3.8 3.8 0 0 0 13.8 62 A 1.7 1.7 0 0 1 13.6 61 A 12.3 12.3 0 0 0 12.8 56.8 A 7.8 7.8 0 0 1 12.2 54.5 A 8.4 8.4 0 0 0 11.4 51.7 A 28.8 28.8 0 0 0 9.8 48.9 Z M 11.5 29.9 A 4.3 4.3 0 0 0 12.4 29.5 A 3.9 3.9 0 0 0 13.6 28.4 A 2 2 0 0 0 13.9 26.5 A 3.4 3.4 0 0 0 13.6 26.1 A 1.9 1.9 0 0 0 12.4 25.2 A 4.1 4.1 0 0 0 10.9 25.5 A 2.6 2.6 0 0 0 10.2 25.8 A 1.7 1.7 0 0 0 9.8 26.1 A 9.9 9.9 0 0 1 8.4 27.3 A 0.8 0.8 0 0 0 8.3 27.4 A 2 2 0 0 0 7.8 27.8 A 1.1 1.1 0 0 1 7.5 28.1 A 0.6 0.6 0 0 1 7.3 28.2 A 12.2 12.2 0 0 0 5.8 28.9 A 7.5 7.5 0 0 0 4.7 30 Q 4.5 30.3 4 30.6 A 3.5 3.5 0 0 0 3.8 30.7 A 2.8 2.8 0 0 0 2.9 31.6 A 1.1 1.1 0 0 1 2.5 32 A 2.6 2.6 0 0 1 2.3 32.1 A 6.4 6.4 0 0 0 0.5 34 A 3.4 3.4 0 0 0 0 36.2 A 3.8 3.8 0 0 0 0.5 37.5 A 2.2 2.2 0 0 0 1 38 A 0.4 0.4 0 0 0 1.1 38.2 Q 1.8 38.9 2.2 39.4 A 1.9 1.9 0 0 0 2.3 39.7 A 1 1 0 0 0 2.4 39.9 A 2.7 2.7 0 0 1 3.1 40.6 A 5.7 5.7 0 0 0 3.9 41.5 A 2.8 2.8 0 0 1 5.3 42.6 Q 5.9 43.3 6.8 43.4 A 1.2 1.2 0 0 0 7.4 43.2 A 1.1 1.1 0 0 0 7.8 42.7 Q 8.1 41.9 7.7 40.8 A 9.4 9.4 0 0 0 7.4 40.4 A 4.5 4.5 0 0 0 6.7 39.5 A 3.4 3.4 0 0 1 6.4 39.2 A 2.8 2.8 0 0 1 6.2 38.8 A 5.3 5.3 0 0 0 5.8 37.7 A 3.1 3.1 0 0 1 5.5 37.3 A 6.1 6.1 0 0 1 5.3 36.8 A 0.1 0.1 0 0 1 5.3 36.7 A 3.6 3.6 0 0 0 5.9 35.4 Q 6 34.9 6.4 34.5 A 2.3 2.3 0 0 0 7.1 33.6 A 3 3 0 0 1 8.4 32.2 A 6.1 6.1 0 0 1 8.6 32.1 A 10.1 10.1 0 0 0 9.1 31.8 A 6.1 6.1 0 0 0 9.9 31.2 A 4.8 4.8 0 0 1 11 30.2 A 5 5 0 0 1 11.5 29.9 Z M 118.2 22.2 L 119.5 22.2 A 11.6 11.6 0 0 0 120.8 22.2 Q 124 22.2 125.4 21.5 A 17 17 0 0 1 128.6 20.4 L 131.9 19.6 A 1.9 1.9 0 0 1 132.5 19.5 A 1.1 1.1 0 0 1 133.1 19.6 A 1.2 1.2 0 0 1 133.5 21.5 A 8.3 8.3 0 0 1 130 24 Q 127.4 25.2 124 26.1 A 37.2 37.2 0 0 1 117.6 27.2 A 7.3 7.3 0 0 1 113.6 26.8 A 2.1 2.1 0 0 1 112.4 23.6 Q 113.8 21.3 116 22.2 A 24.8 24.8 0 0 1 118.2 22.2 Z M 67.5 19.3 L 67.1 19.9 A 1.3 1.3 0 0 0 66.9 20.5 Q 66.5 23.6 65.4 26.1 Q 64.2 28.9 62 30.6 Q 61.5 31 61 31.6 Q 61 31.8 60.8 32 L 60.7 32.1 A 0.2 0.2 0 0 0 60.7 32.2 Q 60.6 32.2 60.6 32.2 A 2.7 2.7 0 0 1 60.2 32.8 Q 59.3 34.1 57.8 34.1 A 2.6 2.6 0 0 1 54.8 31.1 A 2.6 2.6 0 0 1 55 30.3 Q 55.1 30 55.2 29.8 A 0.2 0.2 0 0 1 55.3 29.7 L 55.5 29.4 Q 55.6 29.1 55.7 28.8 Q 55.9 28.4 56.8 27.4 Q 57.2 27 57.7 26.4 L 60.5 23.5 A 4.6 4.6 0 0 0 61.4 22.4 A 2.7 2.7 0 0 1 62.5 20.9 A 5.5 5.5 0 0 0 63.7 18.5 Q 64.3 16.6 65.1 15.9 A 3.4 3.4 0 0 1 65.8 15.5 Q 66.1 15.4 66.5 15.4 A 1.4 1.4 0 0 1 68 17.1 Q 68 18.3 67.5 19.3 Z M 34.5 49.4 A 6.5 6.5 0 0 0 32.6 51.4 A 4 4 0 0 0 32.1 53.7 A 4.4 4.4 0 0 0 32.6 55.1 A 2.3 2.3 0 0 0 33.1 55.6 A 2.7 2.7 0 0 0 35.3 56.1 A 3.6 3.6 0 0 0 36.2 55.6 A 5.6 5.6 0 0 0 37.7 54.2 Q 38.4 53.1 38.5 52.4 A 2.3 2.3 0 0 1 39.2 51.3 A 3 3 0 0 0 40.1 49.9 A 4.4 4.4 0 0 1 41.9 48 A 7.9 7.9 0 0 1 42.1 47.9 A 7.9 7.9 0 0 0 43 47.4 A 5.1 5.1 0 0 0 43.9 46.7 A 5.9 5.9 0 0 1 45.4 45.3 A 5 5 0 0 1 46.1 45 A 6 6 0 0 0 46.9 44.5 A 4.3 4.3 0 0 0 48.1 43.4 A 1.9 1.9 0 0 0 48.5 41.5 A 3.4 3.4 0 0 0 48.2 41.1 A 1.7 1.7 0 0 0 47.1 40.3 Q 46.2 40.2 45.5 40.5 A 2.7 2.7 0 0 0 44.8 40.8 A 2 2 0 0 0 44.4 41.1 A 8.8 8.8 0 0 1 43 42.3 A 2.7 2.7 0 0 0 42.2 43.1 A 1.8 1.8 0 0 1 41.8 43.6 A 0.8 0.8 0 0 1 41.5 43.7 A 12 12 0 0 0 39.6 44.6 A 3.4 3.4 0 0 0 39.4 44.7 Q 38.6 45.3 37.9 46.2 A 4.4 4.4 0 0 1 36.9 47.2 A 5.3 5.3 0 0 0 36.7 47.3 A 3.9 3.9 0 0 0 35.4 48.6 A 1.6 1.6 0 0 1 34.8 49.2 A 5.3 5.3 0 0 1 34.5 49.4 Z M 99.8 32.2 L 98.8 30.7 A 9.7 9.7 0 0 0 97.7 29.4 A 20.3 20.3 0 0 1 95.3 26.8 A 6.6 6.6 0 0 1 94.4 25 L 94 23.3 A 11.7 11.7 0 0 0 92.9 21 A 16.8 16.8 0 0 1 92.1 19.2 Q 91.6 17.9 91.6 17.2 Q 91.6 16.4 92.5 15.9 L 92.6 15.9 A 0.2 0.2 0 0 1 92.8 15.8 L 93.1 15.8 A 2 2 0 0 1 95 16.7 A 4.9 4.9 0 0 1 95.4 17.6 L 95.7 18.5 Q 96.1 19.5 96.8 20.1 A 12.3 12.3 0 0 0 98.2 21.3 A 6.7 6.7 0 0 0 98.9 21.9 L 99.6 22.5 A 3.9 3.9 0 0 1 100.5 23.4 A 3.6 3.6 0 0 1 100.9 24 L 101.7 25.7 Q 102.1 26.3 102.6 26.6 Q 103.9 27.6 104.5 28.4 A 3.9 3.9 0 0 1 105.4 30.7 A 2.7 2.7 0 0 1 102.5 33.9 A 3.4 3.4 0 0 1 99.8 32.2 Z M 151.5 48.6 A 2.4 2.4 0 0 0 155.2 47.9 A 3.5 3.5 0 0 0 154.7 43.8 Q 152.9 41.3 151.3 37.1 Q 150 33.4 149.3 29.8 A 3.2 3.2 0 0 0 149.1 29.3 Q 148.9 29 148.7 28.8 Q 147.5 28.1 146.7 29.4 Q 146 30.5 146.2 33.4 A 31 31 0 0 0 147.2 39.4 A 33.2 33.2 0 0 0 149.1 45.2 A 7.7 7.7 0 0 0 151.5 48.6 Z M 146.2 26 L 145.8 24.8 Q 145.5 24 145 23.4 A 9.3 9.3 0 0 0 142.9 21.7 A 7.8 7.8 0 0 0 140.4 20.7 A 9.8 9.8 0 0 0 138.3 20.6 L 137.1 20.8 A 0.6 0.6 0 0 0 136.8 20.9 A 1.6 1.6 0 0 1 135.8 20.8 Q 135.3 20.5 135.2 19.7 Q 135.1 18.8 135.4 18.3 Q 137.2 15.5 140.5 15.8 A 12.9 12.9 0 0 1 146.1 17.9 Q 148.1 19.1 149.1 21.7 A 5.1 5.1 0 0 1 149.1 26.4 A 1.4 1.4 0 0 1 146.9 26.8 A 1.8 1.8 0 0 1 146.2 26 Z M 19.3 49.2 A 5.1 5.1 0 0 0 18.9 48.3 A 5.6 5.6 0 0 0 18.4 47.8 A 3.5 3.5 0 0 1 17.9 47.1 A 2.6 2.6 0 0 1 17.6 46.4 A 3.6 3.6 0 0 0 17.2 45.7 A 6.8 6.8 0 0 0 17 45.3 Q 16.6 44.7 16.4 44 A 1.3 1.3 0 0 0 16.2 43.5 A 2.2 2.2 0 0 0 15.9 43.1 A 1.1 1.1 0 0 1 15.7 42.9 A 3.7 3.7 0 0 1 15.3 41.2 A 0.8 0.8 0 0 1 15.3 40 A 0.5 0.5 0 0 1 15.3 40 A 1.2 1.2 0 0 0 15.7 39.5 A 0.4 0.4 0 0 1 15.8 39.3 A 0.4 0.4 0 0 1 15.9 39.2 A 1.2 1.2 0 0 0 16.2 39 A 1 1 0 0 1 16.4 38.8 A 1 1 0 0 1 17.5 38.9 A 5.6 5.6 0 0 1 18.4 40 A 5 5 0 0 1 18.5 40.3 Q 19.1 41.1 20 41.7 A 4.7 4.7 0 0 1 21.2 43 A 6 6 0 0 0 21.4 43.3 A 4.5 4.5 0 0 0 22.1 44.2 A 1.9 1.9 0 0 1 22.5 44.6 A 1.9 1.9 0 0 1 22.7 45.1 A 6.2 6.2 0 0 0 23.6 47.1 A 6.5 6.5 0 0 1 24.8 50.5 A 1.4 1.4 0 0 1 24.3 51.4 A 0.7 0.7 0 0 1 24.2 51.4 A 1.4 1.4 0 0 0 23.8 51.8 A 1 1 0 0 1 23.6 52 A 1.3 1.3 0 0 1 23.4 52.1 Q 23.2 52.1 22.9 52.3 A 0.4 0.4 0 0 1 22.9 52.4 A 0.7 0.7 0 0 1 22.4 52.5 A 1.9 1.9 0 0 1 20.9 51.5 A 8.1 8.1 0 0 1 19.7 50.1 A 3.9 3.9 0 0 1 19.3 49.2 Z M 120.8 46.1 L 120.2 46.4 A 1 1 0 0 0 119.8 46.7 A 10.7 10.7 0 0 1 115.7 49.5 Q 112.6 51 111.2 50.1 A 2.1 2.1 0 0 1 110.5 46.8 A 4.8 4.8 0 0 1 113.5 45.2 L 115.4 44.8 Q 116.6 44.6 117.1 44.4 L 117.6 44.2 A 3 3 0 0 0 118.2 43.8 L 119.4 43 A 3.7 3.7 0 0 1 120.3 42.6 A 1.8 1.8 0 0 1 121.8 42.7 A 1.3 1.3 0 0 1 122.2 44.7 A 3.8 3.8 0 0 1 120.8 46.1 Z M 133.4 50.8 L 134.1 50.6 L 134.7 50.9 A 2.8 2.8 0 0 1 135 51.1 A 1.1 1.1 0 0 1 135.6 52.4 A 6.5 6.5 0 0 0 135.6 54.8 L 136.1 57.1 A 0.6 0.6 0 0 1 136.2 57.4 A 10.3 10.3 0 0 1 136.7 59.8 A 3.8 3.8 0 0 1 136.2 62.1 Q 134.9 64.2 133 63.1 A 5.3 5.3 0 0 1 131.5 58.5 A 22.8 22.8 0 0 1 131.6 57.4 A 13.4 13.4 0 0 1 132.8 51.2 A 1.2 1.2 0 0 1 133.4 50.8 Z M 123.4 38.1 Q 123 38.7 120.9 38.2 Q 119.1 37.9 118.3 37.3 A 3.6 3.6 0 0 1 117.1 35.8 A 1.9 1.9 0 0 1 116.8 34 A 2.2 2.2 0 0 1 118.8 33.2 A 4.1 4.1 0 0 1 121.1 33.7 A 6.2 6.2 0 0 1 123 35.6 Q 124 37.1 123.4 38.1 Z"
        ></path>
      </g>
      <!---->
      <!---->
      <!---->
      <!---->
      <!---->
      <!---->
      <!---->
    </g>
  </mask>
  <mask id="598e03bf-fa51-44dd-9220-fb271f6e8118">
    <g fill="white">
      <rect
        stroke-width="2"
        class="i-icon-bg"
        x="0"
        y="0"
        width="147.75999450683594"
        height="12.950000762939453"
        fill-opacity="1"
      ></rect>
    </g>
    <g transform="translate(5,2)" fill="black">
      <g>
        <path
          d="M8.06-6.05L8.06-6.05L6.94-6.05Q6.52-7.78 4.55-7.83L4.55-7.83Q1.83-7.69 1.73-4.36L1.73-4.36Q1.73-0.80 4.59-0.80L4.59-0.80Q6.56-0.84 7.03-3.19L7.03-3.19L8.16-3.19Q7.64 0.05 4.36 0.14L4.36 0.14Q0.61 0 0.52-4.31L0.52-4.31Q0.70-8.63 4.55-8.81L4.55-8.81Q7.59-8.72 8.06-6.05ZM16.43-4.27L16.43-4.27Q16.24-7.64 13.43-7.83L13.43-7.83Q10.57-7.69 10.43-4.27L10.43-4.27Q10.57-0.94 13.43-0.80L13.43-0.80Q16.24-0.98 16.43-4.27ZM17.60-4.27L17.60-4.27Q17.32 0 13.43 0.14L13.43 0.14Q9.49 0 9.21-4.27L9.21-4.27Q9.45-8.72 13.43-8.81L13.43-8.81Q17.32-8.67 17.60-4.27ZM22.60 0L19.13 0L19.13-8.58L22.64-8.58Q26.11-8.39 26.25-4.41L26.25-4.41Q26.07-0.09 22.60 0L22.60 0ZM22.46-7.64L20.30-7.64L20.30-0.98L22.55-0.98Q24.99-1.13 25.08-4.31L25.08-4.31Q25.03-7.55 22.46-7.64L22.46-7.64ZM29.14-1.03L34.29-1.03L34.29 0L27.96 0L27.96-8.58L34.20-8.58L34.20-7.59L29.14-7.59L29.14-4.92L33.82-4.92L33.82-3.89L29.14-3.89L29.14-1.03ZM45.64-6.09L45.64-6.09L44.56-6.09Q44.47-7.73 42.40-7.83L42.40-7.83Q40.48-7.78 40.48-6.33L40.48-6.33Q40.48-5.39 41.51-5.25L41.51-5.25L43.95-4.69Q45.87-4.22 45.87-2.34L45.87-2.34Q45.83 0.05 42.50 0.14L42.50 0.14Q40.67 0.14 39.92-0.61L39.92-0.61Q38.98-1.31 39.03-2.77L39.03-2.77L40.15-2.77Q40.20-0.80 42.50-0.75L42.50-0.75Q44.75-0.80 44.80-2.20L44.80-2.20Q44.98-3.38 42.92-3.75L42.92-3.75L41.14-4.13Q39.31-4.64 39.31-6.19L39.31-6.19Q39.45-8.72 42.31-8.81L42.31-8.81Q45.55-8.81 45.64-6.09ZM55.70-8.58L55.70 0L54.57 0L54.57-5.06Q54.57-5.77 54.57-7.22L54.57-7.22L52.13 0L50.96 0L48.57-7.22L48.52-7.22Q48.52-6.70 48.57-5.67L48.57-5.67Q48.57-5.16 48.57-5.06L48.57-5.06L48.57 0L47.40 0L47.40-8.58L49.09-8.58L51.57-1.31L54.01-8.58L55.70-8.58ZM63.17 0L62.33-2.48L58.86-2.48L57.97 0L56.80 0L60.03-8.58L61.35-8.58L64.44 0L63.17 0ZM60.60-7.31L59.24-3.52L61.91-3.52L60.64-7.31L60.60-7.31ZM65.59-8.58L66.76-8.58L66.76-1.03L71.12-1.03L71.12 0L65.59 0L65.59-8.58ZM72.36-8.58L73.54-8.58L73.54-1.03L77.89-1.03L77.89 0L72.36 0L72.36-8.58ZM88.87-6.09L88.87-6.09L87.79-6.09Q87.69-7.73 85.63-7.83L85.63-7.83Q83.71-7.78 83.71-6.33L83.71-6.33Q83.71-5.39 84.74-5.25L84.74-5.25L87.18-4.69Q89.10-4.22 89.10-2.34L89.10-2.34Q89.05 0.05 85.73 0.14L85.73 0.14Q83.90 0.14 83.15-0.61L83.15-0.61Q82.21-1.31 82.26-2.77L82.26-2.77L83.38-2.77Q83.43-0.80 85.73-0.75L85.73-0.75Q87.98-0.80 88.02-2.20L88.02-2.20Q88.21-3.38 86.15-3.75L86.15-3.75L84.37-4.13Q82.54-4.64 82.54-6.19L82.54-6.19Q82.68-8.72 85.54-8.81L85.54-8.81Q88.77-8.81 88.87-6.09ZM96.34-3.19L96.34-8.58L97.52-8.58L97.52-3.05Q97.37 0.05 94.00 0.14L94.00 0.14Q90.86 0.05 90.72-2.86L90.72-2.86L90.72-8.58L91.89-8.58L91.89-3.19Q91.94-0.84 94.05-0.80L94.05-0.80Q96.34-0.84 96.34-3.19L96.34-3.19ZM103.54-3.70L100.73-3.70L100.73 0L99.56 0L99.56-8.58L103.54-8.58Q106.40-8.58 106.40-6.28L106.40-6.28Q106.40-4.88 105.18-4.22L105.18-4.22Q106.21-3.94 106.21-2.58L106.21-2.58L106.31-1.03Q106.26-0.38 106.73-0.19L106.73-0.19L106.73 0L105.27 0Q105.13-0.61 105.09-2.16L105.09-2.16Q105.13-3.70 103.54-3.70L103.54-3.70ZM103.63-7.64L100.73-7.64L100.73-4.69L103.45-4.69Q105.18-4.69 105.18-6.19L105.18-6.19Q105.18-7.64 103.63-7.64L103.63-7.64ZM111.82-7.64L109.47-7.64L109.47-4.64L111.77-4.64Q113.55-4.64 113.55-6.19L113.55-6.19Q113.55-7.59 111.82-7.64L111.82-7.64ZM112.19-3.61L109.47-3.61L109.47 0L108.30 0L108.30-8.58L112.19-8.58Q114.63-8.48 114.72-6.19L114.72-6.19Q114.58-3.70 112.19-3.61L112.19-3.61ZM116.25-8.58L117.42-8.58L117.42-1.03L121.78-1.03L121.78 0L116.25 0L116.25-8.58ZM128.69-3.19L128.69-8.58L129.86-8.58L129.86-3.05Q129.72 0.05 126.35 0.14L126.35 0.14Q123.21 0.05 123.07-2.86L123.07-2.86L123.07-8.58L124.24-8.58L124.24-3.19Q124.29-0.84 126.40-0.80L126.40-0.80Q128.69-0.84 128.69-3.19L128.69-3.19ZM138.05-6.09L138.05-6.09L136.97-6.09Q136.87-7.73 134.81-7.83L134.81-7.83Q132.89-7.78 132.89-6.33L132.89-6.33Q132.89-5.39 133.92-5.25L133.92-5.25L136.36-4.69Q138.28-4.22 138.28-2.34L138.28-2.34Q138.23 0.05 134.90 0.14L134.90 0.14Q133.08 0.14 132.33-0.61L132.33-0.61Q131.39-1.31 131.44-2.77L131.44-2.77L132.56-2.77Q132.61-0.80 134.90-0.75L134.90-0.75Q137.15-0.80 137.20-2.20L137.20-2.20Q137.39-3.38 135.33-3.75L135.33-3.75L133.55-4.13Q131.72-4.64 131.72-6.19L131.72-6.19Q131.86-8.72 134.72-8.81L134.72-8.81Q137.95-8.81 138.05-6.09Z"
          transform="translate(-0.515625, 8.8125)"
        ></path>
      </g>
    </g>
  </mask>
</svg>
